<svg width="175" height="175" viewBox="0 0 175 175" fill="none" xmlns="http://www.w3.org/2000/svg">
<path fill-rule="evenodd" clip-rule="evenodd" d="M93.5297 77.9986C93.8495 77.5448 94.1148 77.0526 94.3231 76.5356C94.6653 75.6802 94.8314 74.7665 94.8314 73.8503C94.8314 71.9225 94.0764 70.0989 92.7151 68.7376C91.3539 67.3764 89.5302 66.6189 87.6047 66.6189C87.0852 66.6189 86.5707 66.6734 86.0649 66.78C85.7834 66.9115 85.4797 66.9958 85.171 67.0255C84.8648 67.1297 84.5697 67.2574 84.2796 67.4024C83.2729 67.9132 82.4088 68.6546 81.7554 69.5757C81.3922 70.084 80.9707 70.544 80.5058 70.9159C80.4425 70.9655 80.3905 71.004 80.3446 71.0362C79.8846 71.3858 79.3962 71.6648 78.8631 71.8892C78.237 72.1495 77.5861 72.3429 76.9216 72.4768C76.2596 72.6107 75.5839 72.6851 74.9094 72.6851C72.5465 72.6851 70.269 71.8706 68.4403 70.3779C66.6079 68.8852 65.3533 66.8147 64.8771 64.4991C64.5845 63.0696 65.5143 61.6637 66.9437 61.3711C68.3732 61.081 69.7766 62.0084 70.0692 63.4378C70.2986 64.5536 70.8999 65.5491 71.7838 66.2682C72.6702 66.9873 73.7687 67.3753 74.9093 67.3753C75.2341 67.3753 75.5626 67.348 75.8825 67.2848C76.2048 67.2191 76.5222 67.1174 76.826 66.9922C76.9189 66.9513 77.0206 66.9042 77.1074 66.8472C77.2301 66.7381 77.3367 66.6426 77.4359 66.5C78.5877 64.8846 80.1052 63.5717 81.8742 62.6718C82.3168 62.4474 82.7705 62.2478 83.2355 62.0779C83.6161 61.3998 83.9273 60.6832 84.1628 59.9418C84.4963 58.8942 84.6823 57.8007 84.6984 56.701C84.7096 55.9411 84.6463 55.1786 84.5075 54.4285C84.3686 53.6846 84.1492 52.9545 83.8653 52.2552C83.3185 50.9014 83.9769 49.3492 85.3282 48.7986C86.6796 48.2519 88.2342 48.9139 88.7848 50.2615C89.2026 51.2955 89.515 52.3691 89.7196 53.4665C89.9217 54.5599 90.0147 55.6757 89.9961 56.7891C89.9713 58.3562 89.7258 59.917 89.2634 61.4184C91.9846 61.7792 94.51 63.0202 96.4714 64.9816C98.8282 67.3409 100.146 70.5136 100.146 73.8496C100.146 75.4377 99.8348 77.0135 99.2459 78.49C98.6744 79.9281 97.8512 81.2348 96.8234 82.3433C96.3176 82.9644 95.5738 83.3091 94.7754 83.3091H67.3604C64.0466 83.3091 60.8874 84.591 58.5172 86.9107C56.1492 89.2291 54.788 92.357 54.7159 95.6746C54.6862 97.1375 53.4799 98.2991 52.0169 98.2719C50.554 98.2421 49.3887 97.0308 49.4196 95.5679C49.5176 90.8644 51.4405 86.4185 54.8065 83.1269C58.1701 79.8379 62.6519 78.0006 67.3605 78.0006H93.5307L93.5297 77.9986ZM116.626 122.578L126.937 158.312C127.175 159.142 127.89 159.621 128.745 159.613L144.446 159.468C145.312 159.46 145.99 158.954 146.226 158.115L146.934 130.604C146.966 129.311 147.565 127.397 149.37 126.421C159.845 120.739 172.725 108.798 164.113 91.0489C163.142 88.8756 161.909 86.8487 160.455 85.0089C159.221 83.4505 158.926 81.5091 159.638 79.6556C159.78 79.2924 159.908 78.9204 160.026 78.5423C160.606 76.7075 160.917 74.761 160.917 72.745C160.917 67.7637 159.019 63.2185 155.913 59.7921C153.114 56.7101 149.329 54.5391 145.049 53.7743C144.718 46.4707 141.623 39.8889 136.784 35.0526C131.658 29.9263 124.575 26.756 116.754 26.756C114.897 26.756 113.077 26.937 111.308 27.2804C109.977 27.5407 108.677 27.8953 107.418 28.3354C104.946 24.8195 101.692 21.891 97.9137 19.8046C93.8585 17.5655 89.1994 16.2937 84.2476 16.2937C78.6725 16.2937 73.469 17.9066 69.0828 20.6935C65.0299 23.2698 61.6752 26.8514 59.3681 31.0928C58.3379 30.6986 57.2704 30.3762 56.1747 30.1308C54.5444 29.77 52.872 29.5778 51.1759 29.5778C45.9341 29.5778 41.1029 31.3358 37.2359 34.3001C33.5502 37.1194 30.7445 41.0346 29.304 45.5573C23.3953 47.1653 18.2515 50.6379 14.5543 55.3057C10.721 60.1394 8.43239 66.2489 8.43239 72.8879C8.43239 80.7085 11.6012 87.7899 16.729 92.914C21.8554 98.0403 28.9383 101.211 36.7586 101.211C38.8364 101.211 40.8658 100.986 42.8234 100.557C43.9231 100.319 44.9967 100.013 46.0467 99.6497C46.2736 104.617 48.3825 109.097 51.6739 112.392C55.1625 115.881 59.9842 118.038 65.3076 118.038L110.817 118.12C112.105 118.12 115.438 118.144 116.628 122.579L116.626 122.578ZM155.058 134.552L154.631 160.47C153.346 165.047 149.261 168.134 144.515 168.178L128.817 168.325C124.035 168.369 119.856 165.309 118.533 160.7L108.706 126.467H65.307C57.9403 126.467 50.9182 123.561 45.71 118.352C43.1511 115.793 41.1439 112.79 39.7629 109.519C38.7649 109.601 37.7619 109.642 36.7577 109.642C26.9821 109.642 17.6752 105.784 10.7649 98.8773C3.85554 91.9644 0 82.6598 0 72.8845C0 64.578 2.78327 56.5718 7.94308 50.0642C11.8992 45.0718 17.0751 41.1998 22.938 38.8181C25.0704 34.4354 28.2094 30.585 32.1087 27.5994C37.5934 23.3992 44.266 21.1439 51.1751 21.1439C52.69 21.1439 54.2026 21.253 55.6977 21.4724C58.1996 18.3904 61.1887 15.7161 64.5571 13.575C70.4546 9.82614 77.2609 7.85712 84.247 7.85712C90.462 7.85712 96.5493 9.41552 101.991 12.4207C105.118 14.149 107.974 16.3223 110.467 18.8601C112.542 18.4993 114.647 18.3183 116.756 18.3183C126.532 18.3183 135.839 22.1738 142.749 29.0857C147.789 34.1254 151.218 40.4581 152.694 47.3326C156.273 48.891 159.503 51.1957 162.161 54.1217C166.799 59.2321 169.353 65.8412 169.353 72.743C169.353 75.5709 168.924 78.379 168.073 81.0742C174.182 90.204 175 98.0652 175 102.569C175 124.884 155.061 129.951 155.061 134.552L155.058 134.552ZM127.884 123.732V123.73C129.544 123.328 131.227 124.353 131.632 126.01L137.43 149.805C137.834 151.462 136.809 153.148 135.15 153.551V153.554C133.49 153.955 131.806 152.93 131.401 151.274L125.604 127.479C125.199 125.821 126.225 124.138 127.884 123.732ZM73.9352 89.4678C75.4006 89.4678 76.5908 90.6567 76.5908 92.1233C76.5908 93.5887 75.4043 94.7789 73.9352 94.7789C72.6335 94.7789 71.3999 95.2897 70.4786 96.2084C69.56 97.1295 69.0455 98.3656 69.0455 99.6672C69.0455 100.969 69.56 102.205 70.4786 103.124C71.3973 104.042 72.6334 104.557 73.9352 104.557H112.554C114.019 104.557 115.21 105.746 115.21 107.213C115.21 108.678 114.021 109.868 112.554 109.868H73.9352C71.2251 109.868 68.6413 108.796 66.7247 106.879C64.808 104.962 63.7393 102.381 63.7393 99.6685C63.7393 96.9558 64.808 94.372 66.7247 92.4554C68.6414 90.5387 71.2251 89.47 73.9352 89.47V89.4678ZM127.236 57.6345C128.504 56.6824 129.897 55.9038 131.373 55.3211C133.437 54.5066 135.642 54.085 137.862 54.085C138.012 54.085 138.163 54.0962 138.313 54.0962C139.776 54.1284 140.942 55.3372 140.911 56.7976C140.881 58.2606 139.672 59.4222 138.209 59.395C138.094 59.3925 137.977 59.395 137.862 59.395C136.304 59.395 134.756 59.6876 133.309 60.2591C132.602 60.538 131.921 60.8827 131.278 61.2844C133.246 63.8631 134.315 67.0071 134.315 70.2802C134.315 72.8751 133.626 75.4202 132.335 77.6679C131.042 79.9181 129.182 81.7938 126.937 83.0979C125.674 83.8307 124.047 83.3955 123.314 82.1322C122.582 80.8664 123.017 79.2447 124.276 78.5096C125.717 77.6727 126.912 76.4726 127.744 75.0282C128.575 73.5839 129.005 71.9437 129.005 70.2786C129.005 67.7408 128.007 65.3383 126.216 63.5441C124.424 61.7502 122.015 60.7547 119.481 60.7547C117.778 60.7547 116.106 61.2084 114.638 62.0725C113.173 62.9416 111.964 64.1838 111.141 65.6741C110.436 66.9561 108.825 67.4272 107.539 66.7218C106.257 66.0188 105.786 64.4034 106.494 63.1201C107.774 60.7931 109.652 58.8602 111.938 57.5088C114.224 56.1612 116.827 55.4446 119.479 55.4446C122.231 55.4446 124.905 56.1996 127.234 57.6316L127.236 57.6345ZM53.734 52.89C52.3045 51.9031 50.756 51.0849 49.1319 50.465C46.6549 49.5166 44.024 49.0356 41.3723 49.0356C40.8913 49.0356 40.4065 49.0492 39.923 49.0789C39.4395 49.1112 38.9572 49.1583 38.4787 49.224C37.0269 49.4186 35.6929 48.3983 35.4983 46.949C35.3036 45.4997 36.3215 44.1657 37.7708 43.9711C38.3696 43.8893 38.9684 43.8285 39.5697 43.7876C40.171 43.7467 40.7698 43.7244 41.3711 43.7244C44.669 43.7244 47.9418 44.3319 51.0201 45.5072C53.4897 46.4531 55.8056 47.7573 57.8946 49.3741C60.7113 47.6484 63.9346 46.7433 67.2547 46.7433C68.4573 46.7433 69.6587 46.8686 70.8364 47.1103C72.0154 47.3508 73.1684 47.7066 74.2768 48.179C75.6195 48.7505 76.248 50.3151 75.6765 51.654C75.105 52.9967 73.5441 53.6277 72.2015 53.0562C71.4217 52.7251 70.6097 52.471 69.779 52.3011C68.9508 52.1313 68.1003 52.052 67.2548 52.052C63.889 52.052 60.6952 53.3748 58.3161 55.7539C55.937 58.133 54.6142 61.3268 54.6142 64.69C54.6142 65.5703 54.7047 66.448 54.8882 67.3072C55.0717 68.1713 55.3444 69.0131 55.7027 69.8202C56.2904 71.1542 55.6779 72.7324 54.3415 73.32C53.0075 73.9051 51.4355 73.2927 50.8465 71.9612C50.3406 70.8206 49.9551 69.6292 49.6984 68.4094C49.4381 67.187 49.3079 65.9398 49.3079 64.69C49.3079 60.3286 50.875 56.1642 53.735 52.8885L53.734 52.89ZM140.198 78.2122C138.823 77.715 138.109 76.1913 138.606 74.8165C139.103 73.4416 140.627 72.73 142.002 73.2284C144.533 74.1421 146.91 75.4538 149.037 77.1026C151.165 78.754 153.029 80.7316 154.549 82.9567C155.373 84.163 155.06 85.8169 153.855 86.6399C152.646 87.4656 150.992 87.1544 150.169 85.9457C148.963 84.179 147.484 82.6068 145.794 81.2976C144.102 79.9847 142.21 78.9408 140.197 78.2131L140.198 78.2122ZM146.115 96.1527C145.156 95.0568 145.267 93.3719 146.365 92.4124C147.461 91.4553 149.145 91.5669 150.102 92.6641C151.275 94.0018 152.203 95.5465 152.829 97.2115C153.457 98.879 153.783 100.652 153.783 102.435C153.783 106.381 152.227 110.135 149.438 112.923C146.649 115.713 142.897 117.265 138.95 117.265C137.158 117.265 135.379 116.936 133.706 116.305C132.029 115.671 130.478 114.733 129.137 113.547C128.046 112.581 127.942 110.897 128.907 109.806C129.869 108.718 131.557 108.614 132.645 109.577C133.507 110.34 134.502 110.938 135.576 111.344C136.653 111.754 137.799 111.956 138.951 111.956C141.486 111.956 143.895 110.961 145.685 109.167C147.477 107.375 148.475 104.969 148.475 102.435C148.475 101.289 148.273 100.151 147.867 99.0801C147.466 98.0077 146.872 97.0159 146.117 96.1542L146.115 96.1527ZM127.759 90.4028C128.487 89.1345 130.111 88.6906 131.379 89.4184C132.651 90.1424 133.092 91.7702 132.366 93.0384C131.071 95.3084 129.195 97.1916 126.934 98.5047C124.672 99.8177 122.105 100.509 119.491 100.509C115.545 100.509 111.791 98.9559 109.003 96.1641C106.214 93.3746 104.658 89.6232 104.658 85.6782C104.658 83.8297 105.007 81.9972 105.681 80.2776C106.35 78.5581 107.343 76.9775 108.593 75.621C109.582 74.5461 111.265 74.4779 112.339 75.4673C113.414 76.4566 113.485 78.139 112.496 79.214C111.692 80.0868 111.051 81.1034 110.62 82.208C110.191 83.3126 109.969 84.4917 109.969 85.6782C109.969 88.2136 110.967 90.6186 112.759 92.4127C114.55 94.2042 116.959 95.1985 119.493 95.1985C121.172 95.1985 122.82 94.7584 124.275 93.9165C125.726 93.0748 126.93 91.8635 127.761 90.4031L127.759 90.4028ZM98.4614 45.0935C98.4751 44.8481 98.48 44.6013 98.48 44.3559C98.48 40.9739 97.1485 37.7604 94.7559 35.3677C92.3631 32.9749 89.1509 31.6457 85.7677 31.6457C84.2998 31.6457 82.8369 31.8949 81.4532 32.3921C80.0721 32.8892 78.7902 33.6281 77.6583 34.5629C76.5313 35.4977 74.8527 35.339 73.9227 34.2096C72.9929 33.0826 73.1491 31.4102 74.2761 30.4765C75.8816 29.1475 77.7054 28.1086 79.6652 27.4056C81.6203 26.7002 83.687 26.3308 85.7684 26.3308C90.565 26.3308 95.12 28.2202 98.5106 31.611C100.81 33.9083 102.437 36.7685 103.233 39.8962C105.817 38.1271 108.876 37.17 112.038 37.17C113.988 37.17 115.923 37.5419 117.736 38.256C119.554 38.9664 121.222 40.0165 122.652 41.348C123.725 42.3436 123.784 44.0247 122.786 45.0947C121.791 46.1671 120.112 46.2266 119.04 45.2286C118.099 44.3533 117 43.6615 115.803 43.1917C114.605 42.7218 113.326 42.4837 112.038 42.4837C109.601 42.4837 107.256 43.3342 105.396 44.9062C103.682 46.3555 102.262 48.8326 101.887 51.0444C101.644 52.4887 100.282 53.4619 98.8389 53.2239C97.3921 52.9809 96.4139 51.6134 96.6594 50.1666C96.9606 48.3814 97.5694 46.6669 98.4608 45.0924L98.4614 45.0935ZM38.3401 82.5412C39.8005 82.6181 40.9237 83.8678 40.8506 85.3245C40.7799 86.7787 39.524 87.9106 38.0673 87.835C36.9106 87.7743 35.7601 87.5921 34.6444 87.2908C33.5261 86.9895 32.4401 86.5718 31.41 86.0461C27.4675 84.0364 24.5142 80.5662 23.1495 76.3561C21.7882 72.1534 22.1465 67.6145 24.1562 63.6771C24.662 62.6841 25.272 61.7443 25.9663 60.8715C26.658 60.0024 27.4428 59.1979 28.2958 58.485C29.414 57.5502 31.0989 57.7002 32.0313 58.8185C32.9661 59.9343 32.8161 61.6179 31.7003 62.5541C31.1176 63.0376 30.587 63.5843 30.1146 64.1757C29.6448 64.7658 29.2319 65.4092 28.8873 66.0837C27.5149 68.769 27.2681 71.8609 28.1979 74.7323C29.1253 77.5949 31.1374 79.9494 33.8165 81.3167C34.517 81.675 35.2546 81.9626 36.0171 82.1671C36.7746 82.3692 37.5569 82.5007 38.3417 82.5416L38.3401 82.5412Z" fill="#03C29E"/>
</svg>
