<svg width="175" height="175" viewBox="0 0 175 175" fill="none" xmlns="http://www.w3.org/2000/svg">
<path d="M173.431 102.883C171.856 100.198 169.287 98.2421 166.281 97.4363C163.275 96.632 160.073 97.0426 157.368 98.5804L132.282 113.052C131.737 111.754 130.951 110.571 129.965 109.564C127.769 107.349 124.776 106.108 121.657 106.116H77.5697C77.0697 106.116 76.5777 106.243 76.1408 106.486L56.7017 117.302L53.424 108.302V108.303C53.1589 107.57 52.6131 106.971 51.9072 106.641C51.2012 106.31 50.393 106.273 49.6595 106.54L22.0314 116.592V116.59C21.298 116.857 20.6996 117.403 20.3677 118.11C20.037 118.816 20.0016 119.625 20.2679 120.359L21.273 123.118L1.93876 130.172C1.20528 130.439 0.608275 130.984 0.277612 131.69C-0.053045 132.396 -0.0897987 133.205 0.175266 133.938L14.2634 172.597C14.5284 173.331 15.0743 173.929 15.7815 174.26C16.4875 174.59 17.297 174.627 18.0305 174.361L37.3671 167.321L38.3722 170.084V170.083C38.6386 170.817 39.1831 171.415 39.8903 171.746C40.5963 172.076 41.4045 172.113 42.138 171.847L69.7661 161.794V161.796C70.4996 161.529 71.0966 160.983 71.4272 160.278C71.7579 159.572 71.7946 158.763 71.5296 158.03L70.8092 156.081H104.022C104.537 156.081 105.044 155.945 105.491 155.688L169.122 118.947C170.918 117.924 172.41 116.442 173.444 114.651C174.476 112.86 175.013 110.826 175 108.759C174.998 106.697 174.458 104.669 173.43 102.881L173.431 102.883ZM18.7873 167.84L6.73676 134.684L23.3076 128.649L35.3726 161.794L18.7873 167.84ZM42.8884 165.325L26.8084 121.106L48.9017 113.062L64.9845 157.257L42.8884 165.325ZM166.185 113.861L103.233 150.206H68.669L58.7323 122.9L78.3303 111.997H121.655C123.214 111.993 124.71 112.615 125.808 113.722C126.443 114.354 126.918 115.131 127.192 115.985C127.428 116.586 127.544 117.229 127.533 117.875C127.533 119.434 126.914 120.93 125.812 122.032C124.71 123.134 123.214 123.753 121.655 123.753H89.3243V129.632H121.655C124.523 129.622 127.288 128.563 129.428 126.654C131.568 124.745 132.935 122.12 133.27 119.271L160.29 103.676H160.291C162.11 102.625 164.349 102.625 166.168 103.675C167.987 104.725 169.107 106.664 169.108 108.763C169.116 109.796 168.85 110.812 168.336 111.708C167.823 112.603 167.08 113.347 166.184 113.86L166.185 113.861Z" fill="#03C29E"/>
<path d="M26.2578 38.8397C25.052 39.4603 24.4274 40.8262 24.7475 42.1449C25.0664 43.4636 26.2473 44.3912 27.604 44.3912H36.4977C34.4167 47.0824 33.3526 50.4231 33.4956 53.8214C33.6373 57.2211 34.9757 60.4609 37.2745 62.9694C32.9132 64.5505 29.5578 68.1023 28.2273 72.5467C26.8955 76.9907 27.7457 81.8012 30.5196 85.5196C33.2921 89.2381 37.6616 91.4255 42.2997 91.4178H159.866C161.21 91.4125 162.376 90.4927 162.694 89.1872C163.016 87.875 162.413 86.5104 161.224 85.8688C159.758 84.865 158.587 83.4873 157.831 81.8799C157.076 80.2713 156.764 78.4907 156.927 76.7221C156.673 73.3382 158.092 70.0447 160.724 67.9047H165.744C167.088 67.8994 168.254 66.9796 168.572 65.6741C168.895 64.362 168.291 62.9973 167.102 62.3557C165.637 61.3519 164.465 59.9742 163.709 58.3669C162.954 56.7582 162.642 54.9776 162.805 53.209C162.645 51.4495 162.954 49.6794 163.702 48.0798C164.449 46.479 165.608 45.1052 167.058 44.0977C168.296 43.498 168.954 42.119 168.639 40.7793C168.322 39.4396 167.12 38.4975 165.744 38.5133H156.85C158.795 35.9848 159.855 32.8855 159.866 29.6958C159.86 25.8 158.311 22.0644 155.557 19.309C152.801 16.5548 149.066 15.0054 145.17 15H27.6035C26.2599 15.0052 25.0934 15.925 24.7759 17.2306C24.4531 18.5427 25.0567 19.9074 26.2455 20.549C27.7111 21.5527 28.8828 22.9305 29.6388 24.5378C30.3932 26.1465 30.7055 27.9271 30.5428 29.6956C30.7042 31.463 30.3932 33.2411 29.6401 34.8484C28.8869 36.4557 27.7191 37.8335 26.2575 38.8399L26.2578 38.8397ZM54.0565 85.5404H51.1174V67.9054H54.0565V85.5404ZM59.9348 62.0271H56.9957V44.3921H59.9348V62.0271ZM51.1174 62.0271H48.1782C45.0278 62.0271 42.1175 60.3463 40.5418 57.6184C38.9672 54.8904 38.9672 51.5288 40.5418 48.8009C42.1176 46.073 45.0278 44.3921 48.1782 44.3921H51.1174V62.0271ZM33.4824 76.7229C33.4824 74.3847 34.4114 72.1408 36.0647 70.4878C37.718 68.8348 39.9618 67.9056 42.2997 67.9056H45.2389V85.5405H42.2997C39.9615 85.5405 37.7177 84.6115 36.0647 82.9583C34.4117 81.305 33.4824 79.0611 33.4824 76.7232V76.7229ZM153.165 85.5404H59.9348V79.662H145.17V73.7837H59.9348V67.9054H153.165C150.343 73.4451 150.343 80.0006 153.165 85.5404ZM159.043 62.0271H65.8131V56.1488H151.049V50.2705H65.8131V44.3921H159.043C157.596 47.1017 156.866 50.1378 156.927 53.2096C156.866 56.2813 157.596 59.3177 159.043 62.0271ZM133.413 20.8789H136.353V38.5138H133.413V20.8789ZM153.988 29.6964C153.988 32.0346 153.059 34.2784 151.405 35.9314C149.752 37.5844 147.508 38.5137 145.17 38.5137H142.231V20.8787H145.17C147.508 20.8787 149.752 21.8077 151.405 23.461C153.058 25.1143 153.988 27.3581 153.988 29.696V29.6964ZM34.305 20.8789H127.535V26.7572H42.2995V32.6355H127.535V38.5138H34.305C35.7523 35.8043 36.4819 32.7682 36.4215 29.6964C36.4819 26.6247 35.7523 23.5883 34.305 20.8789Z" fill="#03C29E"/>
</svg>
