<svg width="671" height="512" viewBox="0 0 671 512" fill="none" xmlns="http://www.w3.org/2000/svg">
<path d="M240.192 192.056L213.279 174.742L190.052 191.549L128.595 158.141" stroke="#03C29E" stroke-width="6.35039"/>
<mask id="path-2-inside-1_219_14" fill="white">
<path d="M447.212 250.267C447.212 279.131 438.443 294.121 429.153 309.997C419.035 327.293 407.565 346.892 404.939 391.171V407.998C404.939 418.538 398.002 427.484 388.458 430.522V442.097C388.458 453.003 381.032 462.2 370.973 464.913V476.197C370.973 489.226 360.374 499.825 347.345 499.825H325.221C312.191 499.825 301.593 489.226 301.593 476.197V464.913C291.533 462.2 284.108 453.003 284.108 442.097V430.851C273.98 428.184 266.489 418.95 266.489 407.998V391.171C263.86 346.895 252.393 327.291 242.275 309.997C232.992 294.127 224.216 279.138 224.216 250.267C224.216 188.784 274.235 138.77 335.713 138.77C397.192 138.766 447.21 188.785 447.21 250.267H447.212ZM237.379 250.267C237.379 250.729 237.388 251.178 237.391 251.634H262.253C264.814 251.634 267.143 253.119 268.222 255.445C269.301 257.77 268.929 260.505 267.276 262.465C264.886 265.29 263.571 268.887 263.571 272.592C263.571 281.253 270.613 288.298 279.276 288.298C287.937 288.298 294.982 281.256 294.982 272.592C294.982 268.887 293.667 265.29 291.276 262.465C289.623 260.505 289.251 257.77 290.33 255.445C291.409 253.119 293.738 251.634 296.299 251.634H329.124V229.575C326.607 230.282 323.98 230.648 321.326 230.648C305.406 230.648 292.461 217.696 292.461 201.783C292.461 185.867 305.413 172.918 321.326 172.918C323.98 172.918 326.6 173.284 329.124 173.991V152.159C277.971 155.554 237.377 198.254 237.377 250.264L237.379 250.267ZM253.636 303.345C264.033 321.113 275.75 341.144 279.211 384.361H329.134L329.131 331.675C329.131 329.114 330.616 326.785 332.942 325.706C335.268 324.627 338.002 324.999 339.962 326.652C342.787 329.043 346.384 330.358 350.089 330.358C358.75 330.358 365.795 323.316 365.795 314.652C365.795 305.992 358.753 298.947 350.089 298.947C346.384 298.947 342.787 300.262 339.959 302.652C337.999 304.305 335.264 304.677 332.939 303.598C330.613 302.519 329.128 300.19 329.128 297.629V264.804H307.069C307.776 267.322 308.142 269.948 308.142 272.602C308.142 288.522 295.19 301.467 279.277 301.467C263.361 301.467 250.412 288.516 250.412 272.602C250.412 269.948 250.778 267.328 251.485 264.804H238.301C240.524 280.925 246.486 291.126 253.637 303.347L253.636 303.345ZM357.822 476.195V465.726H314.762V476.195C314.762 481.966 319.456 486.661 325.227 486.661H347.351C353.125 486.664 357.822 481.969 357.822 476.195ZM375.307 442.096V431.627L297.273 431.624V442.093C297.273 447.863 301.967 452.558 307.741 452.558H364.836C370.61 452.561 375.307 447.867 375.307 442.096ZM391.785 407.997V397.528H279.653V407.997C279.653 413.767 284.347 418.462 290.118 418.462H381.318C387.091 418.462 391.786 413.768 391.786 407.997H391.785ZM433.13 264.803H409.18C406.619 264.803 404.29 263.318 403.211 260.993C402.132 258.667 402.504 255.932 404.157 253.972C406.547 251.147 407.862 247.551 407.862 243.845C407.862 235.185 400.82 228.14 392.157 228.14C383.497 228.14 376.452 235.182 376.452 243.845C376.452 247.55 377.766 251.147 380.157 253.972C381.81 255.932 382.182 258.667 381.103 260.993C380.024 263.318 377.695 264.803 375.134 264.803H342.309V286.862C344.827 286.155 347.453 285.789 350.107 285.789C366.027 285.789 378.972 298.741 378.972 314.654C378.972 330.574 366.02 343.519 350.107 343.519C347.453 343.519 344.833 343.153 342.309 342.446V384.366H392.231C395.692 341.151 407.416 321.113 417.807 303.351C424.951 291.13 430.914 280.929 433.131 264.802L433.13 264.803ZM434.058 250.273C434.058 198.263 393.465 155.557 342.302 152.159V184.758C342.302 187.319 340.817 189.647 338.492 190.726C337.912 190.996 337.301 191.176 336.69 191.269C336.383 191.316 336.073 191.337 335.763 191.337C334.222 191.347 332.693 190.813 331.471 189.781C329.351 187.989 326.799 186.798 324.092 186.317C323.189 186.156 322.271 186.075 321.341 186.075C312.681 186.075 305.636 193.117 305.636 201.781C305.636 210.441 312.678 217.486 321.341 217.486C325.047 217.486 328.644 216.171 331.469 213.78C333.245 212.277 335.664 211.849 337.834 212.59C338.051 212.664 338.275 212.739 338.489 212.835C339.943 213.511 341.069 214.674 341.707 216.075C342.092 216.918 342.3 217.843 342.3 218.807V251.632H364.358C363.651 249.114 363.286 246.488 363.286 243.834C363.286 227.914 376.237 214.969 392.15 214.969C408.067 214.969 421.015 227.92 421.015 243.834C421.015 246.488 420.649 249.108 419.942 251.632H434.039C434.045 251.182 434.054 250.733 434.054 250.271L434.058 250.273Z"/>
</mask>
<path d="M447.212 250.267C447.212 279.131 438.443 294.121 429.153 309.997C419.035 327.293 407.565 346.892 404.939 391.171V407.998C404.939 418.538 398.002 427.484 388.458 430.522V442.097C388.458 453.003 381.032 462.2 370.973 464.913V476.197C370.973 489.226 360.374 499.825 347.345 499.825H325.221C312.191 499.825 301.593 489.226 301.593 476.197V464.913C291.533 462.2 284.108 453.003 284.108 442.097V430.851C273.98 428.184 266.489 418.95 266.489 407.998V391.171C263.86 346.895 252.393 327.291 242.275 309.997C232.992 294.127 224.216 279.138 224.216 250.267C224.216 188.784 274.235 138.77 335.713 138.77C397.192 138.766 447.21 188.785 447.21 250.267H447.212ZM237.379 250.267C237.379 250.729 237.388 251.178 237.391 251.634H262.253C264.814 251.634 267.143 253.119 268.222 255.445C269.301 257.77 268.929 260.505 267.276 262.465C264.886 265.29 263.571 268.887 263.571 272.592C263.571 281.253 270.613 288.298 279.276 288.298C287.937 288.298 294.982 281.256 294.982 272.592C294.982 268.887 293.667 265.29 291.276 262.465C289.623 260.505 289.251 257.77 290.33 255.445C291.409 253.119 293.738 251.634 296.299 251.634H329.124V229.575C326.607 230.282 323.98 230.648 321.326 230.648C305.406 230.648 292.461 217.696 292.461 201.783C292.461 185.867 305.413 172.918 321.326 172.918C323.98 172.918 326.6 173.284 329.124 173.991V152.159C277.971 155.554 237.377 198.254 237.377 250.264L237.379 250.267ZM253.636 303.345C264.033 321.113 275.75 341.144 279.211 384.361H329.134L329.131 331.675C329.131 329.114 330.616 326.785 332.942 325.706C335.268 324.627 338.002 324.999 339.962 326.652C342.787 329.043 346.384 330.358 350.089 330.358C358.75 330.358 365.795 323.316 365.795 314.652C365.795 305.992 358.753 298.947 350.089 298.947C346.384 298.947 342.787 300.262 339.959 302.652C337.999 304.305 335.264 304.677 332.939 303.598C330.613 302.519 329.128 300.19 329.128 297.629V264.804H307.069C307.776 267.322 308.142 269.948 308.142 272.602C308.142 288.522 295.19 301.467 279.277 301.467C263.361 301.467 250.412 288.516 250.412 272.602C250.412 269.948 250.778 267.328 251.485 264.804H238.301C240.524 280.925 246.486 291.126 253.637 303.347L253.636 303.345ZM357.822 476.195V465.726H314.762V476.195C314.762 481.966 319.456 486.661 325.227 486.661H347.351C353.125 486.664 357.822 481.969 357.822 476.195ZM375.307 442.096V431.627L297.273 431.624V442.093C297.273 447.863 301.967 452.558 307.741 452.558H364.836C370.61 452.561 375.307 447.867 375.307 442.096ZM391.785 407.997V397.528H279.653V407.997C279.653 413.767 284.347 418.462 290.118 418.462H381.318C387.091 418.462 391.786 413.768 391.786 407.997H391.785ZM433.13 264.803H409.18C406.619 264.803 404.29 263.318 403.211 260.993C402.132 258.667 402.504 255.932 404.157 253.972C406.547 251.147 407.862 247.551 407.862 243.845C407.862 235.185 400.82 228.14 392.157 228.14C383.497 228.14 376.452 235.182 376.452 243.845C376.452 247.55 377.766 251.147 380.157 253.972C381.81 255.932 382.182 258.667 381.103 260.993C380.024 263.318 377.695 264.803 375.134 264.803H342.309V286.862C344.827 286.155 347.453 285.789 350.107 285.789C366.027 285.789 378.972 298.741 378.972 314.654C378.972 330.574 366.02 343.519 350.107 343.519C347.453 343.519 344.833 343.153 342.309 342.446V384.366H392.231C395.692 341.151 407.416 321.113 417.807 303.351C424.951 291.13 430.914 280.929 433.131 264.802L433.13 264.803ZM434.058 250.273C434.058 198.263 393.465 155.557 342.302 152.159V184.758C342.302 187.319 340.817 189.647 338.492 190.726C337.912 190.996 337.301 191.176 336.69 191.269C336.383 191.316 336.073 191.337 335.763 191.337C334.222 191.347 332.693 190.813 331.471 189.781C329.351 187.989 326.799 186.798 324.092 186.317C323.189 186.156 322.271 186.075 321.341 186.075C312.681 186.075 305.636 193.117 305.636 201.781C305.636 210.441 312.678 217.486 321.341 217.486C325.047 217.486 328.644 216.171 331.469 213.78C333.245 212.277 335.664 211.849 337.834 212.59C338.051 212.664 338.275 212.739 338.489 212.835C339.943 213.511 341.069 214.674 341.707 216.075C342.092 216.918 342.3 217.843 342.3 218.807V251.632H364.358C363.651 249.114 363.286 246.488 363.286 243.834C363.286 227.914 376.237 214.969 392.15 214.969C408.067 214.969 421.015 227.92 421.015 243.834C421.015 246.488 420.649 249.108 419.942 251.632H434.039C434.045 251.182 434.054 250.733 434.054 250.271L434.058 250.273Z" fill="#03C29E" stroke="#03C29E" stroke-width="3.17519" mask="url(#path-2-inside-1_219_14)"/>
<path d="M618.814 426.02V394.296C618.814 392.052 617.922 389.9 616.336 388.313C614.749 386.727 612.597 385.836 610.354 385.836H559.595C557.352 385.836 555.2 386.727 553.613 388.313C552.026 389.9 551.135 392.052 551.135 394.296V399.232L540.137 384.567C539.794 384.109 539.28 383.81 538.712 383.738C538.144 383.671 537.573 383.831 537.124 384.184L529.375 390.383L524.527 388.145C523.872 387.843 523.108 387.895 522.501 388.284C521.893 388.673 521.526 389.344 521.526 390.066V430.25C521.525 431.125 522.064 431.911 522.881 432.225L550.376 442.8C550.618 442.892 550.875 442.94 551.135 442.94C551.266 442.94 551.397 442.926 551.526 442.902L585.167 436.595H608.239C611.042 436.591 613.73 435.476 615.713 433.494C617.695 431.511 618.81 428.823 618.814 426.02L618.814 426.02ZM538.064 388.852L544.421 397.327L533.672 392.366L538.064 388.852ZM544.791 436.118L525.756 428.796V393.369L544.791 402.156V436.118ZM553.251 438.276L551.337 438.636L549.021 437.745V404.109L550.249 404.676C550.647 404.858 551.089 404.912 551.518 404.832L553.251 404.51V438.276ZM606.124 390.065H610.354C611.476 390.065 612.552 390.51 613.345 391.303C614.139 392.096 614.584 393.173 614.584 394.295V411.214H606.124V390.065ZM601.895 390.065V419.674H587.09V396.41C587.091 395.78 586.81 395.183 586.326 394.781C585.987 394.523 585.576 394.376 585.15 394.358C584.963 394.343 582.75 394.684 582.75 394.684L581.434 390.065L601.895 390.065ZM568.055 390.065H570.24L568.055 391.243V390.065ZM566.945 396.645L577.308 391.064L578.565 395.462L564.105 398.174L566.945 396.645ZM555.366 394.295C555.366 393.173 555.811 392.097 556.604 391.303C557.397 390.51 558.474 390.065 559.595 390.065H563.825V393.518L555.366 398.074V394.295ZM557.481 437.483V403.716L582.86 398.958V419.674H570.53C568.315 419.628 566.167 420.432 564.528 421.922C562.89 423.412 561.884 425.474 561.721 427.683C561.621 429.365 562.032 431.038 562.9 432.482C563.769 433.925 565.053 435.073 566.585 435.773L557.481 437.483ZM570.17 432.365C569.008 432.367 567.896 431.89 567.095 431.046C566.295 430.203 565.878 429.068 565.94 427.906C566.061 426.784 566.6 425.748 567.451 425.007C568.302 424.265 569.402 423.871 570.53 423.905H606.124V415.445H614.584V426.02C614.584 427.703 613.915 429.317 612.726 430.507C611.536 431.696 609.921 432.365 608.239 432.365L570.17 432.365Z" fill="#03C29E"/>
<path d="M529.2 406.833L530.771 402.905L541.346 407.135L539.775 411.063L529.2 406.833Z" fill="#03C29E"/>
<path d="M529.2 415.293L530.771 411.365L541.346 415.595L539.775 419.523L529.2 415.293Z" fill="#03C29E"/>
<path d="M561.449 407L578.368 404.885L578.892 409.082L561.974 411.197L561.449 407Z" fill="#03C29E"/>
<path d="M555.365 356.226C555.365 358.47 556.256 360.622 557.843 362.209C559.43 363.795 561.582 364.686 563.825 364.686V379.491C563.825 380.052 564.048 380.59 564.444 380.986C564.841 381.383 565.379 381.606 565.94 381.606H604.009C604.57 381.606 605.108 381.383 605.505 380.986C605.901 380.59 606.124 380.052 606.124 379.491V364.686C609.146 364.686 611.939 363.074 613.451 360.456C614.961 357.839 614.961 354.614 613.451 351.996C611.939 349.379 609.146 347.767 606.124 347.767V337.192C606.124 327.814 603.356 322.387 589.204 322.387C573.782 322.387 572.322 318.157 572.285 318.157C572.431 317.294 571.966 316.444 571.159 316.102C570.296 315.741 569.298 315.967 568.674 316.664C562.74 322.599 560.062 327.959 560.709 332.592C561.026 334.798 562.133 336.814 563.825 338.265V347.767C561.582 347.767 559.43 348.658 557.843 350.244C556.257 351.831 555.365 353.983 555.365 356.226L555.365 356.226ZM563.825 360.456C562.313 360.456 560.917 359.65 560.162 358.341C559.406 357.033 559.406 355.42 560.162 354.111C560.917 352.803 562.313 351.996 563.825 351.996V360.456ZM606.124 351.996C607.636 351.996 609.032 352.803 609.787 354.111C610.543 355.42 610.543 357.033 609.787 358.341C609.032 359.65 607.636 360.456 606.124 360.456V351.996ZM601.894 377.376H568.055V339.307H601.894V377.376ZM569.698 321.739C571.922 324.078 577.121 326.616 589.205 326.616C599.528 326.616 601.544 329.215 601.849 335.076H566.61C565.679 334.299 565.07 333.204 564.901 332.003C564.623 330.032 565.307 326.722 569.699 321.739H569.698Z" fill="#03C29E"/>
<path d="M591.319 347.767H595.549V351.996H591.319V347.767Z" fill="#03C29E"/>
<path d="M582.859 351.996H587.089V360.456H582.859V351.996Z" fill="#03C29E"/>
<path d="M574.4 347.767H578.63V351.996H574.4V347.767Z" fill="#03C29E"/>
<path d="M584.974 373.146C587.778 373.142 590.466 372.027 592.449 370.045C594.43 368.063 595.545 365.375 595.549 362.571H591.319C591.319 364.838 590.11 366.932 588.147 368.066C586.184 369.199 583.765 369.199 581.802 368.066C579.839 366.932 578.63 364.838 578.63 362.571H574.4C574.403 365.375 575.518 368.063 577.5 370.045C579.483 372.027 582.171 373.142 584.974 373.146Z" fill="#03C29E"/>
<path d="M98.087 387.056C98.087 388.21 97.151 389.146 95.9967 389.146C94.8423 389.146 93.9063 388.21 93.9063 387.056C93.9063 385.901 94.8423 384.965 95.9967 384.965C97.151 384.965 98.087 385.901 98.087 387.056Z" fill="#03C29E"/>
<path d="M98.087 395.417C98.087 396.571 97.151 397.507 95.9967 397.507C94.8423 397.507 93.9063 396.571 93.9063 395.417C93.9063 394.263 94.8423 393.327 95.9967 393.327C97.151 393.327 98.087 394.263 98.087 395.417Z" fill="#03C29E"/>
<path d="M98.087 405.869C98.087 407.023 97.151 407.959 95.9967 407.959C94.8423 407.959 93.9063 407.023 93.9063 405.869C93.9063 404.715 94.8423 403.779 95.9967 403.779C97.151 403.779 98.087 404.715 98.087 405.869Z" fill="#03C29E"/>
<path d="M105.514 397.288L109.695 399.378C109.987 399.525 110.309 399.597 110.629 399.597C110.949 399.597 111.271 399.525 111.563 399.378L115.744 397.288C116.453 396.932 116.9 396.209 116.9 395.417V389.146C116.9 387.992 115.966 387.055 114.81 387.055H106.448C105.292 387.055 104.358 387.992 104.358 389.146V395.417C104.358 396.209 104.805 396.932 105.514 397.288Z" fill="#03C29E"/>
<path d="M106.448 341.068C106.448 342.222 105.512 343.158 104.358 343.158C103.204 343.158 102.268 342.222 102.268 341.068C102.268 339.914 103.204 338.978 104.358 338.978C105.512 338.978 106.448 339.914 106.448 341.068Z" fill="#03C29E"/>
<path d="M89.7256 341.068C89.7256 342.222 88.7896 343.158 87.6353 343.158C86.4809 343.158 85.5449 342.222 85.5449 341.068C85.5449 339.914 86.4809 338.978 87.6353 338.978C88.7896 338.978 89.7256 339.914 89.7256 341.068Z" fill="#03C29E"/>
<path d="M101.107 349.781C98 351.85 93.9911 351.85 90.8826 349.781C89.9167 349.137 88.6233 349.398 87.9831 350.359C87.341 351.319 87.6005 352.618 88.5617 353.259C90.819 354.764 93.4048 355.516 95.9926 355.516C98.5803 355.516 101.166 354.764 103.423 353.259C104.385 352.619 104.644 351.321 104.002 350.359C103.366 349.398 102.068 349.137 101.106 349.781H101.107Z" fill="#03C29E"/>
<path d="M58.1578 369.468C54.4093 373.558 52.0996 378.991 52.0996 384.966V401.688C52.0996 409.105 57.6492 415.234 64.8106 416.181C63.4164 417.956 62.5514 420.165 62.5514 422.592C62.5514 423.745 63.4855 424.682 64.6417 424.682H148.256C149.412 424.682 150.346 423.745 150.346 422.592C150.346 416.828 145.658 412.14 139.894 412.14H138.467C139.395 410.194 139.894 408.057 139.894 405.869V384.966C139.894 378.991 137.585 373.558 133.836 369.468C136.589 367.712 139.121 365.702 141.372 363.452C141.807 363.017 142.026 362.413 141.978 361.8C141.928 361.188 141.609 360.627 141.108 360.272C132.494 354.118 127.352 344.124 127.352 333.537V324.346C127.352 310.515 116.1 299.262 102.268 299.262C99.7745 299.262 97.5294 300.36 95.9971 302.099C94.4648 300.36 92.2196 299.262 89.726 299.262C75.8944 299.262 64.6418 310.515 64.6418 324.346V333.537C64.6418 344.123 59.5 354.117 50.8856 360.27C50.3864 360.627 50.0663 361.185 50.0159 361.798C49.9674 362.41 50.1876 363.014 50.6225 363.449C52.8734 365.701 55.4043 367.712 58.158 369.468L58.1578 369.468ZM66.7321 412.14C60.9687 412.14 56.2803 407.452 56.2803 401.688V389.146H66.7321V401.688C66.7321 402.842 67.6662 403.778 68.8224 403.778H81.3645C86.4131 403.778 90.6349 407.376 91.6053 412.14H66.7321ZM135.714 405.869C135.714 408.148 134.928 410.328 133.552 412.14H117.223C113.359 412.14 109.566 413.409 106.482 415.72C106.02 415.373 105.517 415.1 105.028 414.798C106.524 410.766 110.414 407.959 114.81 407.959H123.172C124.328 407.959 125.262 407.022 125.262 405.869V389.146H135.714L135.714 405.869ZM121.081 332.707C122.235 332.707 123.172 333.645 123.172 334.797C123.172 338.255 120.358 341.068 116.9 341.068V332.707H121.081ZM73.6051 323.494C75.9549 312.918 85.1627 305.532 95.997 305.532C106.831 305.532 116.039 312.917 118.389 323.494C118.638 324.621 117.927 325.738 116.8 325.988C116.647 326.021 116.495 326.038 116.345 326.038C115.388 326.038 114.523 325.376 114.305 324.401C112.386 315.752 104.856 309.713 95.9968 309.713C87.138 309.713 79.608 315.752 77.6875 324.4C77.4383 325.531 76.3222 326.247 75.1939 325.986C74.0666 325.738 73.3564 324.622 73.6046 323.494L73.6051 323.494ZM95.997 359.881C86.776 359.881 79.2742 352.379 79.2742 343.158V339.471L79.3367 339.596C79.6605 343.915 83.2355 347.338 87.6355 347.338C91.944 347.338 95.4594 344.053 95.9073 339.862C95.9661 339.853 96.0268 339.853 96.0846 339.862C96.5344 344.053 100.05 347.338 104.358 347.338C108.758 347.338 112.333 343.915 112.657 339.596L112.72 339.471V343.158C112.72 352.379 105.218 359.881 95.9969 359.881H95.997ZM104.358 362.303V369.147L95.997 374.164L87.6356 369.147V362.303C90.1982 363.428 93.0248 364.061 95.997 364.061C98.9691 364.061 101.796 363.428 104.358 362.303ZM87.6356 328.526C88.3336 328.526 88.9859 328.177 89.375 327.595L91.8163 323.933L94.2576 327.595C94.6467 328.177 95.299 328.526 95.997 328.526H112.565C112.641 329.08 112.678 329.63 112.695 330.175L110.878 333.806C109.344 331.879 107.009 330.616 104.359 330.616C100.916 330.616 97.9559 332.71 96.6747 335.689C96.4488 335.653 96.2295 335.594 95.9972 335.594C95.7648 335.594 95.5455 335.653 95.3197 335.689C94.0384 332.71 91.0783 330.616 87.6358 330.616C84.9855 330.616 82.6507 331.878 81.1156 333.806L79.2987 330.175C79.3155 329.629 79.3528 329.079 79.4284 328.526H87.6356ZM81.5838 321.321L83.6742 317.14C84.1902 316.105 85.4472 315.692 86.4793 316.206C87.5123 316.722 87.9304 317.979 87.4134 319.011L85.3231 323.192C84.9582 323.923 84.22 324.345 83.453 324.345C83.1394 324.345 82.8193 324.274 82.5207 324.126C81.4877 323.607 81.0677 322.353 81.5838 321.321L81.5838 321.321ZM97.1532 316.203C98.1863 315.689 99.4423 316.105 99.9583 317.137L102.049 321.318C102.565 322.351 102.147 323.607 101.115 324.123C100.813 324.274 100.493 324.345 100.179 324.345C99.4124 324.345 98.6743 323.923 98.3066 323.189L96.2162 319.008C95.7002 317.976 96.1201 316.722 97.1532 316.203L97.1532 316.203ZM103.199 314.244C104.163 313.6 105.456 313.863 106.098 314.823L110.279 321.094C110.921 322.053 110.661 323.353 109.7 323.993C109.342 324.232 108.939 324.345 108.541 324.345C107.865 324.345 107.201 324.019 106.8 323.415L102.619 317.144C101.978 316.182 102.236 314.884 103.199 314.244L103.199 314.244ZM108.539 338.977C108.539 341.283 106.664 343.158 104.358 343.158C102.052 343.158 100.178 341.283 100.178 338.977C100.178 336.671 102.052 334.796 104.358 334.796C106.664 334.796 108.539 336.671 108.539 338.977ZM91.8163 338.977C91.8163 341.283 89.9415 343.158 87.6356 343.158C85.3296 343.158 83.4549 341.283 83.4549 338.977C83.4549 336.671 85.3296 334.796 87.6356 334.796C89.9415 334.796 91.8163 336.671 91.8163 338.977ZM70.9128 332.706H75.0935V341.067C71.6359 341.067 68.8224 338.254 68.8224 334.796C68.8224 333.645 69.7593 332.706 70.9128 332.706ZM75.0935 366.152V372.423C75.0935 372.801 75.1961 373.173 75.3921 373.5L81.6631 383.951C82.2258 384.884 83.4063 385.233 84.3909 384.746L95.997 378.94L107.605 384.743C107.904 384.894 108.224 384.965 108.537 384.965C109.252 384.965 109.942 384.599 110.331 383.951L116.602 373.5C116.798 373.173 116.9 372.801 116.9 372.423V366.152C127.275 366.152 135.714 374.592 135.714 384.965H125.262V382.874C125.262 381.721 124.328 380.784 123.172 380.784C122.015 380.784 121.081 381.721 121.081 382.874V403.778H114.81C108.777 403.778 103.403 407.544 101.221 413.011C99.4945 412.455 97.6824 412.156 95.83 412.146C95.3578 408.86 93.8022 405.927 91.5243 403.722L87.4566 394.566C86.9863 393.515 85.7554 393.03 84.6971 393.504C83.6417 393.975 83.1695 395.208 83.6352 396.264L85.37 400.166C84.0943 399.804 82.7552 399.597 81.3646 399.597H70.9129V382.874C70.9129 381.721 69.9787 380.784 68.8225 380.784C67.6663 380.784 66.7322 381.721 66.7322 382.874V384.965H56.2804C56.2804 374.592 64.7192 366.152 75.0936 366.152L75.0935 366.152Z" fill="#03C29E"/>
<path d="M128.803 148.999C127.034 142.058 121.318 137.022 114.241 136.07L107.98 135.253L106.074 129.81C111.11 126.272 114.92 120.827 116.417 114.295C118.187 113.342 121.044 111.029 121.044 105.041C121.044 100.685 120.364 98.1003 118.867 96.7391C118.594 96.4667 118.186 96.1952 117.778 96.0585C116.281 82.8571 105.801 72.6499 92.7361 72.6499C79.6703 72.6499 69.0551 82.8571 67.6944 96.0585C67.2862 96.1942 67.0137 96.4667 66.7412 96.7391C65.1084 98.2362 64.4277 100.822 64.4277 105.177C64.4277 111.165 67.2862 113.479 69.0547 114.431C70.5519 120.963 74.3625 126.408 79.3978 129.946L77.4925 135.389L71.2316 136.206C64.1544 137.159 58.4383 142.194 56.6688 149.135L54.0827 159.069C53.8103 160.158 54.0828 161.247 54.7634 162.199C55.4441 163.016 56.533 163.561 57.6219 163.561H127.986C129.075 163.561 130.164 163.152 130.845 162.199C131.525 161.383 131.798 160.158 131.525 159.069L128.803 148.999ZM81.3057 137.294L83.211 131.851C86.2052 133.212 89.472 134.165 93.01 134.165C96.4124 134.165 99.6789 133.348 102.673 131.987L104.443 137.43C97.5014 142.33 88.2462 142.33 81.3057 137.294V137.294ZM92.8744 130.081C83.3479 130.081 75.046 122.733 73.1407 112.525C73.0049 111.709 72.3243 111.164 71.6436 110.893C71.3711 110.757 68.7851 109.939 68.7851 105.177C68.7851 102.59 69.0575 101.23 69.3291 100.549H70.0097C70.0097 101.23 70.5537 103.952 71.0986 103.952H73.9571C74.5011 103.952 75.046 103.408 75.046 102.727C75.046 102.727 75.59 95.2417 76.2707 90.3422C76.4064 89.2534 77.3596 88.5727 78.3117 88.7094C81.9866 89.5258 87.1575 90.0707 93.0101 90.0707C98.8618 90.0707 103.898 89.5268 107.709 88.7094C108.662 88.4369 109.614 89.1176 109.75 90.3422C110.294 95.2417 110.974 102.727 110.974 102.727C110.974 103.408 111.518 103.952 112.063 103.952H114.922C115.466 103.952 116.01 101.366 116.01 100.549H116.691C116.964 101.23 117.235 102.591 117.235 105.177C117.235 110.076 114.649 110.893 114.513 110.893C113.697 111.028 113.016 111.709 112.881 112.525C110.839 122.596 102.537 130.081 92.8745 130.081H92.8744Z" fill="#03C29E"/>
<path d="M88.9273 103.407C88.9273 105.361 87.3429 106.946 85.3891 106.946C83.4344 106.946 81.8508 105.361 81.8508 103.407C81.8508 101.453 83.4343 99.8683 85.3891 99.8683C87.3428 99.8683 88.9273 101.453 88.9273 103.407Z" fill="#03C29E"/>
<path d="M103.898 103.407C103.898 105.361 102.313 106.946 100.36 106.946C98.4048 106.946 96.8205 105.361 96.8205 103.407C96.8205 101.453 98.405 99.8683 100.36 99.8683C102.313 99.8683 103.898 101.453 103.898 103.407Z" fill="#03C29E"/>
<path d="M101.176 111.844H84.572C83.8913 111.844 83.3474 112.117 82.9391 112.661C82.5309 113.205 82.2585 113.75 82.3952 114.43C83.0759 119.738 87.5671 123.685 92.8748 123.685C98.1826 123.685 102.674 119.738 103.354 114.43C103.49 113.75 103.219 113.206 102.811 112.661C102.4 112.116 101.855 111.844 101.176 111.844V111.844ZM100.359 116.199H85.3883C85.1158 115.518 84.8443 114.838 84.7076 114.158H101.176C100.903 114.974 100.631 115.518 100.359 116.199H100.359Z" fill="#03C29E"/>
<path d="M145.271 34.1335H120.501C113.424 34.1335 107.572 39.9852 107.572 47.0624V61.7608C107.572 68.9739 113.424 74.6897 120.501 74.6897H122.271C122.135 76.3226 121.727 78.0921 121.046 79.9975C120.23 81.9028 120.774 84.0806 122.408 85.4408C123.361 86.2573 124.449 86.6655 125.538 86.6655C126.354 86.6655 127.17 86.393 127.987 85.9848C133.022 83.1263 137.378 78.4993 140.235 74.6888H145.134C152.348 74.6888 158.063 68.8372 158.063 61.7599V47.0622C158.2 39.985 152.483 34.1333 145.27 34.1333L145.271 34.1335ZM152.348 61.7611C152.348 65.7074 149.218 68.8383 145.271 68.8383H138.874C137.921 68.8383 137.105 69.2465 136.561 70.063C134.791 72.5122 131.526 76.5953 127.442 79.4538C128.259 76.3239 128.396 73.6022 128.259 71.6959C128.123 70.063 126.897 68.8374 125.265 68.8374H120.365C116.419 68.8374 113.288 65.7074 113.288 61.7601L113.289 47.0624C113.289 43.1161 116.419 39.9852 120.366 39.9852H145.136C149.082 39.9852 152.213 43.1152 152.213 47.0624L152.212 61.7608L152.348 61.7611Z" fill="#03C29E"/>
<path d="M142.821 46.3817H122.951C121.318 46.3817 119.956 47.743 119.956 49.3758C119.956 51.0086 121.318 52.3699 122.951 52.3699H142.821C144.454 52.3699 145.815 51.0086 145.815 49.3758C145.815 47.743 144.454 46.3817 142.821 46.3817V46.3817Z" fill="#03C29E"/>
<path d="M142.821 56.3172H122.951C121.318 56.3172 119.956 57.6786 119.956 59.3113C119.956 60.9441 121.318 62.3054 122.951 62.3054H142.821C144.454 62.3054 145.815 60.9441 145.815 59.3113C145.815 57.6775 144.454 56.3172 142.821 56.3172V56.3172Z" fill="#03C29E"/>
<path d="M570.391 97.8557C570.391 100.138 568.541 101.987 566.26 101.987C563.977 101.987 562.128 100.138 562.128 97.8557C562.128 95.5736 563.978 93.7239 566.26 93.7239C568.541 93.7239 570.391 95.5737 570.391 97.8557Z" fill="#03C29E"/>
<path d="M587.418 97.8557C587.418 100.138 585.569 101.987 583.287 101.987C581.006 101.987 579.156 100.138 579.156 97.8557C579.156 95.5736 581.005 93.7239 583.287 93.7239C585.569 93.7239 587.418 95.5737 587.418 97.8557Z" fill="#03C29E"/>
<path d="M574.898 116.762C579.03 116.762 582.786 114.884 584.664 111.754C585.415 110.627 585.04 109.25 584.038 108.499C582.911 107.748 581.534 108.123 580.783 109.125C579.656 110.878 577.402 112.004 574.898 112.004C572.394 112.004 570.14 110.878 569.013 109.125C568.262 107.998 566.885 107.748 565.758 108.499C564.632 109.25 564.381 110.627 565.132 111.754C567.011 114.883 570.766 116.762 574.898 116.762H574.898Z" fill="#03C29E"/>
<path d="M598.562 132.788H589.171L587.919 128.28C598.311 129.157 606.199 128.656 604.07 106.745C605.447 105.243 606.198 103.115 606.198 100.234C606.198 96.478 605.321 93.9741 603.569 92.3462C603.068 91.9707 602.442 91.4693 601.691 91.2196C596.308 66.3038 578.278 66.6794 575.022 66.6794C571.767 66.6794 553.612 66.3039 548.228 91.2196C547.352 91.5951 546.726 91.9707 546.225 92.472C544.472 94.0999 543.595 96.7287 543.595 100.36C543.595 103.365 544.346 105.494 545.724 106.996C543.595 128.782 551.483 129.408 561.75 128.531L560.497 133.039L550.985 133.038C542.721 133.038 535.96 139.798 535.96 148.062V157.452C535.96 159.581 537.713 161.334 539.841 161.334H609.581C611.709 161.334 613.462 159.581 613.462 157.452V148.062C613.587 139.424 606.825 132.788 598.561 132.788L598.562 132.788ZM553.613 106.996C553.488 105.618 552.361 104.492 550.983 104.366C549.231 104.241 547.978 104.115 547.978 100.234C547.978 97.229 548.729 96.1023 549.105 95.7267C549.23 95.7267 549.356 95.6018 549.605 95.4761C549.856 96.3529 550.482 97.104 551.483 97.2289C552.736 97.4796 553.987 96.6027 554.113 95.3512C554.488 93.0979 555.115 91.2194 555.741 89.3416C559.622 89.7171 565.507 88.4647 571.642 85.4604C574.772 83.9583 577.402 82.3303 579.655 80.5775C580.532 81.4543 581.533 82.4552 582.66 83.332C586.541 86.4621 590.673 88.5906 593.553 89.0918C594.304 90.9695 594.93 92.973 595.306 95.3521C595.556 96.4787 596.432 97.2298 597.559 97.2298H597.934C598.936 97.1049 599.562 96.3529 599.812 95.477C600.063 95.6019 600.188 95.7276 600.313 95.7276C600.688 96.1032 601.439 97.2298 601.439 100.235C601.439 104.116 600.187 104.242 598.434 104.367C597.057 104.492 595.93 105.619 595.804 106.997C595.178 112.881 591.422 118.39 584.786 123.023C578.902 127.154 570.638 127.154 564.628 123.023C557.996 118.264 554.24 112.88 553.613 106.996H553.613ZM583.412 139.173L577.277 143.806C575.775 144.932 573.771 144.932 572.269 143.806L566.134 139.173C564.756 138.172 564.13 136.419 564.632 134.791L566.134 129.031C568.888 130.157 571.768 130.908 574.773 130.908C577.778 130.908 580.658 130.282 583.412 129.031L584.915 134.791C585.416 136.419 584.79 138.171 583.412 139.173H583.412Z" fill="#03C29E"/>
<path d="M531.202 79.3253C530.325 78.4485 528.822 78.4485 527.821 79.3253C526.944 80.2022 526.944 81.7045 527.821 82.7061C532.328 87.2135 534.832 93.2231 534.832 99.6092C534.832 105.994 532.328 112.005 527.821 116.512C527.32 117.013 527.07 117.639 527.07 118.14C527.07 118.766 527.32 119.393 527.696 119.768C528.573 120.645 530.075 120.645 531.077 119.768C536.46 114.385 539.465 107.123 539.465 99.4852C539.59 91.9709 536.585 84.8347 531.202 79.3254L531.202 79.3253Z" fill="#03C29E"/>
<path d="M525.192 85.3352C524.315 84.4583 522.813 84.4583 521.811 85.3352C521.31 85.8356 521.185 86.3369 521.185 86.9631C521.185 87.5893 521.435 88.2155 521.936 88.591C524.815 91.4705 526.568 95.4775 526.568 99.6093C526.568 103.741 524.94 107.747 522.061 110.628C521.184 111.504 521.184 113.007 522.061 114.008C522.938 114.885 524.44 114.885 525.442 114.008C529.323 110.127 531.451 105.118 531.451 99.6102C531.202 94.225 529.074 89.0914 525.192 85.335L525.192 85.3352Z" fill="#03C29E"/>
<path d="M519.307 91.2198C518.43 90.343 516.928 90.343 515.926 91.2198C515.049 92.0967 515.049 93.5989 515.926 94.6006C518.681 97.3551 518.681 102.113 515.926 104.868C515.426 105.368 515.175 105.87 515.175 106.496C515.175 107.122 515.426 107.748 515.926 108.124C516.803 109.001 518.305 109.001 519.307 108.124C521.56 105.87 522.813 102.865 522.813 99.6102C522.813 96.4783 521.56 93.474 519.307 91.2199V91.2198Z" fill="#03C29E"/>
<path d="M614.713 99.7337C614.713 93.3485 617.217 87.3382 621.724 82.8306C622.601 81.9538 622.601 80.4515 621.724 79.4499C620.848 78.4481 619.345 78.573 618.344 79.4499C612.96 84.8332 609.955 92.0954 609.955 99.7328C609.955 107.37 612.96 114.632 618.344 120.016C619.221 120.893 620.723 120.893 621.724 120.016C622.225 119.515 622.351 119.014 622.351 118.388C622.351 117.762 622.1 117.135 621.6 116.76C617.217 112.128 614.713 106.119 614.713 99.7339L614.713 99.7337Z" fill="#03C29E"/>
<path d="M623.102 99.7337C623.102 95.602 624.73 91.5958 627.734 88.7155C628.235 88.215 628.485 87.5888 628.485 87.0875C628.485 86.4613 628.235 85.8351 627.859 85.4596C626.982 84.5827 625.48 84.4579 624.478 85.4596C620.722 89.216 618.469 94.4744 618.469 99.8577C618.469 105.241 620.597 110.375 624.478 114.256C625.355 115.133 626.858 115.133 627.859 114.256C628.736 113.379 628.736 111.877 627.859 110.875C624.73 107.747 623.102 103.865 623.102 99.7336L623.102 99.7337Z" fill="#03C29E"/>
<path d="M633.494 104.867C630.739 102.113 630.739 97.3544 633.494 94.5999C634.371 93.723 634.371 92.2208 633.494 91.2191C632.617 90.3423 631.115 90.3423 630.113 91.2191C627.86 93.4724 626.607 96.4777 626.607 99.7326C626.607 102.988 627.86 105.993 630.113 108.246C630.99 109.123 632.492 109.123 633.494 108.246C633.994 107.746 634.245 107.244 634.245 106.618C634.245 105.869 633.994 105.243 633.494 104.867V104.867Z" fill="#03C29E"/>
<path d="M430.38 192.056L457.293 174.742L480.52 191.549L541.976 158.141" stroke="#03C29E" stroke-width="6.35039"/>
<path d="M423.236 320.646L450.149 337.959L473.376 321.152L565.185 369.513" stroke="#03C29E" stroke-width="6.35039"/>
<path d="M249.717 324.615L222.804 341.928L199.577 325.121L138.121 358.53" stroke="#03C29E" stroke-width="6.35039"/>
</svg>
