<svg width="175" height="175" viewBox="0 0 175 175" fill="none" xmlns="http://www.w3.org/2000/svg">
<g clip-path="url(#clip0_220_118)">
<path d="M87.4999 0C82.0846 0 76.8919 2.15103 73.0636 5.98033C69.2343 9.80833 67.0833 15.001 67.0833 20.4167C67.0833 25.8323 69.2343 31.0247 73.0636 34.853C76.8916 38.6823 82.0843 40.8333 87.4999 40.8333C92.9156 40.8333 98.1079 38.6823 101.936 34.853C105.766 31.025 107.917 25.8323 107.917 20.4167C107.91 15.004 105.756 9.815 101.93 5.987C98.1016 2.16033 92.9126 0.00666667 87.4999 0V0ZM87.4999 35C83.6326 35 79.9233 33.4635 77.1873 30.7293C74.4529 27.9937 72.9166 24.284 72.9166 20.4167C72.9166 16.5493 74.4531 12.84 77.1873 10.104C79.9229 7.36963 83.6326 5.83333 87.4999 5.83333C91.3673 5.83333 95.0766 7.3698 97.8126 10.104C100.547 12.8397 102.083 16.5493 102.083 20.4167C102.078 24.2827 100.54 27.9897 97.8073 30.724C95.0729 33.4571 91.3659 34.9947 87.4999 35Z" fill="#03C29E"/>
<path d="M154.583 72.9166C159.999 72.9166 165.191 70.7656 169.02 66.9363C172.849 63.1083 175 57.9156 175 52.4999C175 47.0843 172.849 41.8919 169.02 38.0636C165.192 34.2343 159.999 32.0833 154.583 32.0833C149.168 32.0833 143.975 34.2343 140.147 38.0636C136.318 41.8916 134.167 47.0843 134.167 52.4999C134.173 57.9126 136.327 63.1016 140.154 66.9296C143.982 70.7563 149.171 72.9099 154.583 72.9166V72.9166ZM154.583 37.9166C158.451 37.9166 162.16 39.4531 164.896 42.1873C167.63 44.9229 169.167 48.6326 169.167 52.4999C169.167 56.3673 167.63 60.0766 164.896 62.8126C162.16 65.547 158.451 67.0833 154.583 67.0833C150.716 67.0833 147.007 65.5468 144.271 62.8126C141.536 60.0769 140 56.3673 140 52.4999C140.005 48.6339 141.543 44.9269 144.276 42.1926C147.01 39.4595 150.717 37.9219 154.583 37.9166Z" fill="#03C29E"/>
<path d="M154.583 119.583C149.168 119.583 143.975 121.734 140.147 125.564C136.318 129.392 134.167 134.584 134.167 140C134.167 145.416 136.318 150.608 140.147 154.436C143.975 158.266 149.168 160.417 154.583 160.417C159.999 160.417 165.191 158.266 169.02 154.436C172.849 150.608 175 145.416 175 140C174.993 134.587 172.84 129.398 169.013 125.57C165.185 121.744 159.996 119.59 154.583 119.583ZM154.583 154.583C150.716 154.583 147.007 153.047 144.271 150.313C141.536 147.577 140 143.867 140 140C140 136.133 141.536 132.423 144.271 129.687C147.006 126.953 150.716 125.417 154.583 125.417C158.451 125.417 162.16 126.953 164.896 129.687C167.63 132.423 169.167 136.133 169.167 140C169.161 143.866 167.624 147.573 164.891 150.307C162.156 153.04 158.449 154.578 154.583 154.583Z" fill="#03C29E"/>
<path d="M20.4167 72.9166C25.832 72.9166 31.0247 70.7656 34.853 66.9363C38.6823 63.1083 40.8333 57.9156 40.8333 52.4999C40.8333 47.0843 38.6823 41.8919 34.853 38.0636C31.025 34.2343 25.8323 32.0833 20.4167 32.0833C15.001 32.0833 9.80867 34.2343 5.98033 38.0636C2.151 41.8916 0 47.0843 0 52.4999C0.00651033 57.9126 2.16017 63.1016 5.987 66.9296C9.815 70.7563 15.004 72.9099 20.4167 72.9166ZM20.4167 37.9166C24.284 37.9166 27.9933 39.4531 30.7293 42.1873C33.4637 44.9229 35 48.6326 35 52.4999C35 56.3673 33.4635 60.0766 30.7293 62.8126C27.9937 65.547 24.284 67.0833 20.4167 67.0833C16.5493 67.0833 12.84 65.5468 10.104 62.8126C7.36963 60.0769 5.83333 56.3673 5.83333 52.4999C5.83854 48.6339 7.3763 44.9269 10.1093 42.1926C12.8437 39.4595 16.5507 37.9219 20.4167 37.9166Z" fill="#03C29E"/>
<path d="M20.4167 160.417C25.832 160.417 31.0247 158.266 34.853 154.436C38.6823 150.608 40.8333 145.416 40.8333 140C40.8333 134.584 38.6823 129.392 34.853 125.564C31.025 121.734 25.8323 119.583 20.4167 119.583C15.001 119.583 9.80867 121.734 5.98033 125.564C2.151 129.392 0 134.584 0 140C0.00651033 145.413 2.16017 150.602 5.987 154.43C9.815 158.256 15.004 160.41 20.4167 160.417ZM20.4167 125.417C24.284 125.417 27.9933 126.953 30.7293 129.687C33.4637 132.423 35 136.133 35 140C35 143.867 33.4635 147.577 30.7293 150.313C27.9937 153.047 24.284 154.583 20.4167 154.583C16.5493 154.583 12.84 153.047 10.104 150.313C7.36963 147.577 5.83333 143.867 5.83333 140C5.83854 136.134 7.3763 132.427 10.1093 129.693C12.8437 126.96 16.5507 125.422 20.4167 125.417Z" fill="#03C29E"/>
<path d="M82.0901 15.3127C82.4768 15.3127 82.8479 15.4664 83.1214 15.7398C83.3948 16.0132 83.5484 16.3843 83.5484 16.7711H86.4651C86.4651 14.3544 84.5055 12.3961 82.0901 12.3961C79.6734 12.3961 77.7151 14.3544 77.7151 16.7711H80.6318C80.6318 15.9651 81.2841 15.3127 82.0901 15.3127Z" fill="#03C29E"/>
<path d="M93.7567 12.3961C91.34 12.3961 89.3817 14.3544 89.3817 16.7711H92.2984C92.2984 15.9651 92.9507 15.3127 93.7567 15.3127C94.5614 15.3127 95.215 15.9651 95.215 16.7711H98.1317C98.1317 14.3544 96.1721 12.3961 93.7567 12.3961Z" fill="#03C29E"/>
<path d="M87.9234 26.9794C85.5067 26.9794 83.5484 25.021 83.5484 22.6044H80.6317C80.6317 25.2098 82.0211 27.616 84.2777 28.9194C86.5329 30.2214 89.3127 30.2214 91.5694 28.9194C93.8246 27.616 95.2154 25.2097 95.2154 22.6044H92.2987C92.2987 25.021 90.3391 26.9794 87.9237 26.9794H87.9234Z" fill="#03C29E"/>
<path d="M100.723 87.7533C101.618 85.8484 102.081 83.7703 102.083 81.666C102.083 76.4563 99.3028 71.6413 94.7911 69.037C90.2794 66.4315 84.7194 66.4315 80.2077 69.037C75.6961 71.6412 72.9161 76.4563 72.9161 81.666C72.9174 83.7702 73.3809 85.8483 74.2754 87.7533C69.8238 88.4968 65.7808 90.7937 62.8614 94.2363C59.9435 97.679 58.3381 102.044 58.3328 106.557V131.249C58.3328 132.023 58.6401 132.765 59.1869 133.312C59.7338 133.859 60.476 134.166 61.2494 134.166H69.9994V172.083C69.9994 172.856 70.3067 173.598 70.8536 174.145C71.4005 174.692 72.1427 174.999 72.9161 174.999H102.083C102.856 174.999 103.598 174.692 104.145 174.145C104.692 173.598 104.999 172.856 104.999 172.083V134.166H113.749C114.523 134.166 115.265 133.859 115.812 133.312C116.359 132.765 116.666 132.023 116.666 131.249V106.557C116.661 102.044 115.055 97.679 112.137 94.2363C109.218 90.7937 105.175 88.4967 100.723 87.7533H100.723ZM110.833 128.333H104.999V102.083H99.166V169.167H90.416V131.25H84.5827V169.167H75.8327V102.083H69.9994V128.333H64.166V106.557C64.1699 103.051 65.5645 99.69 68.0437 97.211C70.5229 94.732 73.8837 93.3373 77.39 93.3333H79.8575C81.0736 93.3333 82.1609 92.5794 82.5879 91.4414C83.015 90.3034 82.6921 89.0208 81.7767 88.22C79.8575 86.5846 78.7507 84.1887 78.7494 81.6667C78.7494 78.5404 80.4174 75.6524 83.1244 74.0887C85.8314 72.5262 89.1674 72.5262 91.8744 74.0887C94.5814 75.6525 96.2494 78.5404 96.2494 81.6667C96.2481 84.1888 95.1413 86.5847 93.2221 88.22C92.3067 89.0208 91.9838 90.3034 92.4109 91.4414C92.8379 92.5794 93.9252 93.3333 95.1413 93.3333H97.6088C101.115 93.3372 104.476 94.7318 106.955 97.211C109.434 99.6902 110.829 103.051 110.833 106.557L110.833 128.333Z" fill="#03C29E"/>
<path d="M160.417 48.8533C162.833 48.8533 164.792 46.8949 164.792 44.4783H161.875C161.875 45.2843 161.223 45.9366 160.417 45.9366C159.611 45.9366 158.958 45.2843 158.958 44.4783H156.042C156.042 46.8949 158 48.8533 160.417 48.8533Z" fill="#03C29E"/>
<path d="M148.75 48.8533C151.167 48.8533 153.125 46.8949 153.125 44.4783H150.208C150.208 45.2843 149.556 45.9366 148.75 45.9366C147.944 45.9366 147.292 45.2843 147.292 44.4783H144.375C144.375 46.8949 146.333 48.8533 148.75 48.8533Z" fill="#03C29E"/>
<path d="M147.293 60.5199H150.21C150.21 58.1033 152.168 56.1449 154.585 56.1449C157.002 56.1449 158.96 58.1033 158.96 60.5199H161.877C161.877 57.9145 160.487 55.5083 158.231 54.2049C155.974 52.9029 153.196 52.9029 150.939 54.2049C148.682 55.5083 147.293 57.9146 147.293 60.5199H147.293Z" fill="#03C29E"/>
<path d="M148.75 137.813C149.93 137.813 150.994 137.102 151.444 136.013C151.896 134.923 151.647 133.669 150.813 132.834C149.978 132 148.724 131.751 147.634 132.203C146.544 132.653 145.833 133.717 145.833 134.897C145.833 135.67 146.141 136.412 146.688 136.959C147.235 137.506 147.977 137.813 148.75 137.813Z" fill="#03C29E"/>
<path d="M160.417 131.98C159.237 131.98 158.173 132.691 157.723 133.781C157.271 134.87 157.519 136.124 158.354 136.959C159.189 137.794 160.443 138.042 161.532 137.591C162.622 137.14 163.333 136.076 163.333 134.897C163.333 134.123 163.026 133.381 162.479 132.834C161.932 132.287 161.19 131.98 160.417 131.98Z" fill="#03C29E"/>
<path d="M158.96 144.5L157.076 142.613C156.802 142.339 156.431 142.185 156.043 142.185C155.655 142.185 155.284 142.339 155.011 142.613L153.127 144.5L151.243 142.613C150.969 142.339 150.598 142.185 150.21 142.185C149.822 142.185 149.451 142.339 149.177 142.613L146.261 145.53L148.326 147.595L150.21 145.708L152.094 147.595C152.367 147.87 152.739 148.024 153.127 148.024C153.515 148.024 153.886 147.87 154.159 147.595L156.043 145.708L157.927 147.595C158.201 147.87 158.572 148.024 158.96 148.024C159.348 148.024 159.719 147.87 159.993 147.595L162.909 144.678L160.844 142.613L158.96 144.5Z" fill="#03C29E"/>
<path d="M14.5834 137.083C15.7631 137.083 16.8269 136.372 17.2774 135.282C17.7292 134.193 17.4805 132.939 16.6459 132.104C15.8113 131.269 14.5574 131.021 13.4675 131.473C12.3777 131.923 11.6667 132.987 11.6667 134.167C11.6667 134.94 11.974 135.682 12.5209 136.229C13.0678 136.776 13.81 137.083 14.5834 137.083Z" fill="#03C29E"/>
<path d="M26.2499 137.083C27.4296 137.083 28.4934 136.372 28.9439 135.282C29.3958 134.193 29.147 132.939 28.3124 132.104C27.4778 131.269 26.2239 131.021 25.134 131.473C24.0442 131.923 23.3333 132.987 23.3333 134.167C23.3333 134.94 23.6405 135.682 24.1874 136.229C24.7343 136.776 25.4765 137.083 26.2499 137.083Z" fill="#03C29E"/>
<path d="M14.5833 144.373C14.5833 145.92 15.1979 147.405 16.2916 148.498C17.3853 149.592 18.8697 150.207 20.4166 150.207C21.9635 150.207 23.4479 149.592 24.5416 148.498C25.6353 147.405 26.2499 145.92 26.2499 144.373C26.2499 142.827 25.6353 141.342 24.5416 140.248C23.4479 139.155 21.9635 138.54 20.4166 138.54C18.8697 138.54 17.3853 139.155 16.2916 140.248C15.1979 141.342 14.5833 142.827 14.5833 144.373ZM20.4166 141.457C21.5963 141.457 22.6601 142.168 23.1106 143.257C23.5624 144.347 23.3137 145.601 22.4791 146.436C21.6445 147.271 20.3906 147.519 19.3007 147.067C18.2109 146.617 17.4999 145.553 17.4999 144.373C17.4999 142.763 18.8059 141.457 20.4166 141.457Z" fill="#03C29E"/>
<path d="M14.5833 45.9367C14.97 45.9367 15.3411 46.0903 15.6145 46.3638C15.888 46.6372 16.0416 47.0083 16.0416 47.395H18.9583C18.9583 44.9784 16.9999 43.02 14.5833 43.02C12.1666 43.02 10.2083 44.9784 10.2083 47.395H13.1249C13.1249 46.589 13.7773 45.9367 14.5833 45.9367Z" fill="#03C29E"/>
<path d="M26.25 45.9367C26.6367 45.9367 27.0078 46.0903 27.2813 46.3638C27.5547 46.6372 27.7083 47.0083 27.7083 47.395H30.625C30.625 44.9784 28.6667 43.02 26.25 43.02C23.8333 43.02 21.875 44.9784 21.875 47.395H24.7917C24.7917 46.589 25.444 45.9367 26.25 45.9367Z" fill="#03C29E"/>
<path d="M13.1267 54.6867C13.1267 57.2922 14.516 59.6984 16.7727 61.0017C19.0292 62.3038 21.8077 62.3038 24.0644 61.0017C26.3209 59.6983 27.7104 57.2921 27.7104 54.6867C27.7104 54.3 27.5567 53.9289 27.2833 53.6555C27.0099 53.382 26.6388 53.2284 26.252 53.2284H14.5854C13.7794 53.2284 13.127 53.8807 13.127 54.6867H13.1267ZM24.542 56.1451C23.9235 57.8925 22.2712 59.0604 20.4184 59.0604C18.5655 59.0604 16.913 57.8925 16.2947 56.1451H24.542Z" fill="#03C29E"/>
<path d="M84.5833 43.75H90.4166V49.5833H84.5833V43.75Z" fill="#03C29E"/>
<path d="M84.5833 55.4167H90.4166V61.2501H84.5833V55.4167Z" fill="#03C29E"/>
<path d="M131.25 67.0833H137.083V72.9166H131.25V67.0833Z" fill="#03C29E"/>
<path d="M119.583 72.9167H125.417V78.7501H119.583V72.9167Z" fill="#03C29E"/>
<path d="M107.917 78.75H113.75V84.5833H107.917V78.75Z" fill="#03C29E"/>
<path d="M37.9167 67.0833H43.7501V72.9166H37.9167V67.0833Z" fill="#03C29E"/>
<path d="M49.5833 72.9167H55.4166V78.7501H49.5833V72.9167Z" fill="#03C29E"/>
<path d="M61.25 78.75H67.0833V84.5833H61.25V78.75Z" fill="#03C29E"/>
<path d="M58.3333 140H64.1666V145.833H58.3333V140Z" fill="#03C29E"/>
<path d="M46.6667 140H52.5001V145.833H46.6667V140Z" fill="#03C29E"/>
<path d="M122.5 140H128.333V145.833H122.5V140Z" fill="#03C29E"/>
<path d="M110.833 140H116.667V145.833H110.833V140Z" fill="#03C29E"/>
</g>
<defs>
<clipPath id="clip0_220_118">
<rect width="175" height="175" fill="white"/>
</clipPath>
</defs>
</svg>
