<svg width="225" height="225" viewBox="0 0 225 225" fill="none" xmlns="http://www.w3.org/2000/svg">
<path d="M108.991 82.7737C104.907 82.7852 100.903 81.6955 97.4371 79.6315C95.6405 78.5484 95.0972 76.2786 96.2233 74.5552C97.3477 72.8319 99.7186 72.3068 101.52 73.38C103.778 74.677 106.36 75.3617 108.991 75.3617C111.623 75.3617 114.205 74.677 116.461 73.38C117.327 72.8615 118.373 72.692 119.37 72.9109C120.365 73.1298 121.228 73.7191 121.772 74.5486C122.313 75.3782 122.489 76.379 122.258 77.3336C122.028 78.2867 121.412 79.113 120.546 79.6314C117.078 81.6955 113.074 82.7851 108.991 82.7736L108.991 82.7737ZM222.971 104.97C221.96 106.038 220.64 106.792 219.177 107.133C217.715 107.475 216.178 107.389 214.768 106.887L204.6 103.349L194.57 129.726V129.724C196.398 132.571 197.371 135.843 197.388 139.185C197.381 144.072 195.351 148.758 191.742 152.215C188.132 155.669 183.237 157.615 178.132 157.62C177.109 157.6 176.088 157.501 175.082 157.325L145.272 175.494C144.525 180.298 141.812 184.622 137.732 187.514C133.654 190.404 128.542 191.626 123.522 190.908C118.502 190.19 113.987 187.593 110.968 183.687H79.0879C76.913 186.516 73.93 188.684 70.4983 189.928C67.0649 191.173 63.3308 191.439 59.7441 190.697L38.4617 208.791C37.798 213.922 34.9183 218.552 30.5239 221.557C26.1295 224.563 20.621 225.667 15.3359 224.606C10.0508 223.542 5.47259 220.409 2.71297 215.964C-0.0481401 211.522 -0.737558 206.174 0.809763 201.221C2.35708 196.267 6.00198 192.162 10.8588 189.899C15.7139 187.637 21.3379 187.426 26.3646 189.316L44.5648 173.444C44.5528 173.182 44.484 172.937 44.484 172.672V172.673C44.5098 170.828 44.8313 169 45.4331 167.247V129.34C45.4554 125.681 46.695 122.124 48.973 119.187C51.2528 116.249 54.4504 114.085 58.104 113.006L84.4466 105.484L91.6863 103.42H91.6846C93.9523 102.777 95.5048 100.78 95.4979 98.5166V95.1292C84.1853 90.9681 75.7009 81.7886 72.7661 70.5316C72.3707 70.5662 71.9907 70.6419 71.5832 70.6419C67.2576 70.6567 63.2036 68.6305 60.7433 65.2252C58.283 61.8198 57.7311 57.4741 59.2716 53.6046C60.8103 49.7349 64.2402 46.8395 68.4439 45.8636L68.4078 45.6562L68.4061 45.6233L68.4078 45.6216C66.5854 34.781 69.5734 23.7036 76.6532 15.0655C83.7331 6.42568 94.2601 1.0119 105.693 0.128288C117.124 -0.757266 128.423 2.9709 136.859 10.4106C145.296 17.8486 150.103 28.3239 150.12 39.304C150.122 41.4142 149.938 43.5211 149.575 45.6014C149.572 45.6195 149.577 45.636 149.573 45.6541L149.549 45.794V45.7956C153.787 46.719 157.272 49.588 158.862 53.4595C160.453 57.3309 159.94 61.7041 157.494 65.1429C155.049 68.5814 150.987 70.6405 146.64 70.6422C146.166 70.6225 145.691 70.5747 145.222 70.5023C142.292 81.7824 133.792 90.9801 122.455 95.1395V98.517C122.45 100.792 124.022 102.793 126.306 103.42L133.546 105.485L159.849 113.007C164.718 114.45 168.712 117.813 170.828 122.252C171.586 121.938 172.367 121.67 173.161 121.451L182.918 95.7882L172.712 92.2494C170.821 91.5778 169.286 90.2183 168.44 88.4653C167.594 86.7123 167.508 84.7108 168.201 82.8985C168.894 81.0847 170.307 79.6082 172.135 78.7918L200.826 65.9977C202.647 65.1599 204.746 65.0661 206.64 65.7393C208.527 66.4075 210.062 67.7573 210.916 69.5004L224.28 96.9687C224.923 98.274 225.143 99.7356 224.909 101.163C224.677 102.588 224 103.915 222.97 104.97L222.971 104.97ZM31.0039 206.474C31.0039 203.541 29.7866 200.726 27.6204 198.652C25.4524 196.578 22.514 195.413 19.4507 195.413C16.3853 195.413 13.4469 196.578 11.281 198.652C9.11471 200.726 7.89748 203.541 7.89748 206.474C7.89748 209.407 9.11471 212.222 11.281 214.295C13.4473 216.369 16.3856 217.535 19.4507 217.535C22.5127 217.531 25.451 216.364 27.6155 214.292C29.7818 212.218 31.0007 209.407 31.0042 206.474L31.0039 206.474ZM148.312 53.1159L146.594 63.2616L146.642 63.2699H146.641C149.314 63.2682 151.589 61.405 152.005 58.875C152.421 56.3467 150.855 53.9041 148.312 53.1157L148.312 53.1159ZM71.3858 63.252L69.682 53.1833C67.2355 54.0359 65.7673 56.4324 66.1833 58.8916C66.5994 61.3523 68.7828 63.1829 71.3857 63.252H71.3858ZM108.991 90.154C116.043 90.177 122.872 87.7838 128.243 83.4087C133.614 79.0319 137.173 72.9616 138.277 66.2921L141.122 49.4832C135.859 45.8703 131.283 41.4211 127.59 36.3284C115.519 40.1866 102.465 40.1866 90.3936 36.3284C86.7024 41.4228 82.124 45.8717 76.8614 49.4832L79.705 66.2921C80.8088 72.9599 84.3677 79.0319 89.7386 83.407C95.1095 87.7838 101.939 90.1767 108.991 90.154H108.991ZM94.1881 110.427C103.723 113.917 114.269 113.917 123.804 110.427C121.173 109.614 118.88 108.024 117.254 105.883C115.627 103.743 114.752 101.166 114.754 98.5186V97.0784C110.928 97.6775 107.025 97.6775 103.2 97.0751V98.5186C103.207 101.16 102.339 103.738 100.719 105.878C99.0999 108.018 96.8133 109.611 94.1879 110.427H94.1881ZM52.1178 187.277C49.9584 185.692 48.1738 183.689 46.8811 181.398L33.065 193.451C34.9476 195.275 36.4124 197.454 37.3683 199.849L52.1178 187.277ZM75.2933 172.677C75.2933 169.744 74.0761 166.93 71.9098 164.856C69.7418 162.782 66.8034 161.617 63.7401 161.617C60.6747 161.617 57.7363 162.782 55.5704 164.856C53.4041 166.93 52.1869 169.745 52.1869 172.677C52.1869 175.611 53.4041 178.424 55.5704 180.499C57.7367 182.573 60.675 183.738 63.7401 183.738C66.8021 183.735 69.7404 182.568 71.9049 180.496C74.0712 178.422 75.2902 175.61 75.2936 172.677L75.2933 172.677ZM107.06 172.677H107.058C107.06 171.423 107.194 170.171 107.459 168.943H82.5951C83.1229 171.374 83.1281 173.882 82.6106 176.317H107.444C107.189 175.118 107.06 173.899 107.059 172.677H107.06ZM137.869 172.677H137.867C137.867 169.744 136.65 166.93 134.484 164.856C132.318 162.782 129.379 161.617 126.314 161.617C123.251 161.617 120.312 162.782 118.146 164.856C115.978 166.93 114.761 169.745 114.761 172.677C114.761 175.611 115.978 178.424 118.146 180.499C120.312 182.573 123.251 183.738 126.314 183.738C129.378 183.735 132.315 182.568 134.481 180.496C136.647 178.422 137.866 175.61 137.868 172.677L137.869 172.677ZM166.523 153.798C164.437 152.27 162.701 150.353 161.416 148.162L140.47 160.283H140.472C142.356 162.265 143.766 164.62 144.598 167.18L166.523 153.798ZM189.686 139.188C189.686 136.255 188.469 133.44 186.303 131.367C184.135 129.293 181.196 128.127 178.133 128.127C175.069 128.127 172.129 129.293 169.963 131.367C167.797 133.441 166.58 136.255 166.58 139.188C166.58 142.121 167.797 144.936 169.963 147.01C172.13 149.084 175.07 150.249 178.133 150.249C181.195 150.246 184.133 149.079 186.298 147.006C188.464 144.932 189.683 142.121 189.686 139.188L189.686 139.188ZM217.194 99.8855L203.945 72.638L175.37 85.5063L189.156 90.1152H189.158C191.154 90.8098 192.187 92.9199 191.469 94.8342L181.482 121.078C184.059 121.506 186.516 122.436 188.702 123.808L198.708 97.3769C199.054 96.4568 199.767 95.7063 200.692 95.2915C201.617 94.8767 202.678 94.8306 203.637 95.1647L217.194 99.8855Z" fill="#03C29E"/>
</svg>
