<svg width="225" height="225" viewBox="0 0 225 225" fill="none" xmlns="http://www.w3.org/2000/svg">
<path d="M101.5 102.854H94.7471V106.414H101.5C104.658 106.414 107.498 104.672 108.911 101.87L105.701 100.278C104.901 101.867 103.291 102.854 101.5 102.854V102.854Z" fill="#03C29E"/>
<path d="M142.375 130.087C143.085 132.915 145.634 134.889 148.574 134.889C151.512 134.889 154.062 132.915 154.773 130.087L156.255 124.21H140.893L142.375 130.087ZM151.658 127.77L151.29 129.224C150.98 130.465 149.862 131.329 148.574 131.329C147.286 131.329 146.167 130.464 145.855 129.224L145.489 127.77H151.658Z" fill="#03C29E"/>
<path d="M141.397 117.093H144.986V115.313C144.986 112.37 142.571 109.974 139.603 109.974C136.636 109.974 134.22 112.369 134.22 115.313V117.093H137.809V115.313C137.809 114.331 138.614 113.534 139.603 113.534C140.592 113.534 141.397 114.331 141.397 115.313L141.397 117.093Z" fill="#03C29E"/>
<path d="M157.543 109.974C154.576 109.974 152.16 112.369 152.16 115.313V117.093H155.749V115.313C155.749 114.331 156.554 113.534 157.543 113.534C158.531 113.534 159.337 114.331 159.337 115.313V117.093H162.926V115.313C162.926 112.37 160.511 109.974 157.543 109.974H157.543Z" fill="#03C29E"/>
<path d="M177.281 104.234C177.281 100.545 175.432 97.1189 172.338 95.0739L171.653 94.6198C170.199 89.9479 166.21 86.4651 161.309 85.6555L158.386 85.1729C155.786 82.7976 152.435 81.4986 148.88 81.4986H148.265C144.712 81.4986 141.359 82.7978 138.761 85.1723L135.84 85.6549C135.129 85.7726 134.437 85.9573 133.761 86.1867C133.293 84.9175 132.474 83.8268 131.416 83.0135L132.939 78.4809C133.789 75.9501 134.22 73.3156 134.22 70.6519C134.22 57.0072 123.027 45.9062 109.27 45.9062H99.0593C91.4038 45.9062 84.2587 49.222 79.3609 55.0252L78.6983 55.2123C71.2451 57.3264 66.04 64.1712 66.04 71.8609C66.04 73.7243 66.3411 75.5662 66.9355 77.3355L68.8443 83.0141C67.1504 84.3164 66.0401 86.3314 66.0401 88.618C66.0401 92.5441 69.2587 95.7366 73.2169 95.7366H75.205C76.5163 104.544 82.5361 111.83 90.5185 115.149L89.7472 117.447C82.0807 120.043 76.8059 127.288 76.8059 135.388C76.8059 140.564 79.7087 145.078 83.9827 147.42V152.686C83.9827 154.648 85.592 156.245 87.5714 156.245H116.278V152.686H116.278C120.237 152.686 123.455 149.493 123.455 145.567V133.236C123.455 125.558 117.947 118.898 110.467 117.307L109.742 115.148C113.914 113.411 117.538 110.59 120.244 107.025C120.438 107.76 120.697 108.478 121.039 109.158L122.346 111.754C120.839 113.06 119.867 114.958 119.867 117.093C119.867 121.019 123.086 124.211 127.044 124.211H127.369C128.243 129.34 130.945 133.859 134.811 137.057L132.328 138.288C129.068 139.903 127.044 143.153 127.044 146.767C127.044 151.992 131.33 156.245 136.6 156.245H160.548C165.819 156.245 170.105 151.992 170.105 146.767C170.105 143.153 168.081 139.905 164.823 138.288L162.34 137.057C166.207 133.859 168.908 129.342 169.782 124.211H170.105C174.063 124.211 177.282 121.019 177.282 117.093C177.282 114.957 176.31 113.06 174.802 111.753L176.11 109.159C176.876 107.64 177.282 105.936 177.282 104.235L177.281 104.234ZM101.923 81.4978H98.3342C98.3342 79.5351 96.7249 77.9381 94.7455 77.9381L80.3942 77.9389C80.4082 75.5806 82.0074 73.4841 84.295 72.8367L89.317 71.4151C92.4496 73.3008 96.0709 74.3791 99.8257 74.3791H114.483C116.819 74.3791 118.792 75.8723 119.535 77.9387H105.512C103.532 77.9387 101.923 79.535 101.923 81.4976L101.923 81.4978ZM78.4551 92.1761H76.8046V81.4978H94.747L94.7485 92.1761H78.4551ZM105.512 81.4978H123.455L123.456 92.1761H105.512L105.512 81.4978ZM127.044 92.1761V85.0574C129.022 85.0574 130.632 86.6537 130.632 88.617C130.632 90.5797 129.022 92.1759 127.044 92.1759V92.1761ZM70.3384 76.207C69.8667 74.8023 69.6284 73.3399 69.6284 71.8592C69.6284 65.7495 73.7642 60.3126 79.6848 58.6348L81.4377 58.1384L81.7947 57.695C86.0127 52.4644 92.3065 49.4643 99.0581 49.4643H109.269C121.049 49.4643 130.631 58.9689 130.631 70.6515C130.631 72.9327 130.262 75.1878 129.535 77.3538L128.106 81.6054C127.757 81.5539 127.407 81.4985 127.043 81.4985C127.043 79.5358 125.434 77.9388 123.454 77.9388H123.273C122.439 73.8827 118.816 70.8201 114.483 70.8201H99.8257C93.9999 70.8201 88.5185 67.743 85.5187 62.7849L82.4413 64.6159C83.3639 66.1391 84.4814 67.5129 85.7462 68.7213L83.3112 69.4148C79.4913 70.4985 76.8235 74.0028 76.8072 77.9397H76.8056C74.8269 77.9397 73.2169 79.536 73.2169 81.4993C72.853 81.4993 72.503 81.5548 72.1546 81.6063L70.3384 76.207ZM69.6284 88.6162C69.6284 86.6536 71.2378 85.0566 73.2172 85.0566V92.1753C71.2377 92.176 69.6284 90.5797 69.6284 88.6164V88.6162ZM87.57 148.769C88.564 148.995 89.5938 149.125 90.656 149.125H91.1588V152.684H87.5701L87.57 148.769ZM105.512 152.684H94.7469V149.124H101.924C103.237 149.124 104.452 148.747 105.512 148.134V152.684ZM105.512 135.877C104.452 135.264 103.237 134.887 101.924 134.887H94.7469V131.328H105.512V135.877ZM101.924 138.446C103.902 138.446 105.512 140.042 105.512 142.006C105.512 143.968 103.903 145.565 101.924 145.565H98.335V138.447L101.924 138.446ZM116.277 149.124V145.565H119.866C119.866 147.528 118.257 149.124 116.277 149.124ZM119.866 133.234V142.006H116.277V133.844C116.277 132.697 116.727 131.618 117.548 130.807L115.009 128.29C113.513 129.775 112.689 131.746 112.689 133.844L112.687 152.684H109.1V131.327C109.1 129.364 107.491 127.767 105.512 127.767H94.7462C92.7675 127.767 91.1575 129.364 91.1575 131.327V134.957C89.3255 135.127 87.6177 135.88 86.2985 137.187L88.8373 139.704C89.6567 138.893 90.7439 138.445 91.9016 138.445H94.747V145.564H90.6561C84.9971 145.564 80.3934 141 80.3934 135.385C80.3934 128.812 84.6743 122.944 90.8913 120.83L92.5596 121.934C94.8083 123.424 97.4256 124.208 100.13 124.208C102.834 124.208 105.451 123.423 107.699 121.935L109.488 120.754C115.445 121.909 119.866 127.158 119.866 133.233L119.866 133.234ZM106.966 118.144L105.71 118.975C102.395 121.168 97.8655 121.168 94.5514 118.975L93.2935 118.144L93.9182 116.287C95.9132 116.8 97.9912 117.09 100.13 117.09C102.268 117.09 104.346 116.8 106.341 116.287L106.966 118.144ZM100.13 113.531C89.6373 113.531 80.6487 105.882 78.8509 95.7343H94.7471C96.7257 95.7343 98.3358 94.138 98.3358 92.1747V85.056H101.924V92.1747C101.924 94.1373 103.534 95.7343 105.513 95.7343H121.413C119.643 105.85 110.641 113.531 100.131 113.531H100.13ZM123.455 117.09C123.455 115.128 125.064 113.531 127.043 113.531V120.649C125.064 120.65 123.455 119.054 123.455 117.09V117.09ZM130.631 146.766C130.631 144.507 131.896 142.48 133.931 141.471L138.201 139.353C139.165 139.882 140.182 140.321 141.229 140.698L142.396 143.786H140.346C138.229 143.786 136.241 144.603 134.744 146.088L137.283 148.604C138.101 147.792 139.188 147.346 140.346 147.346H141.397V152.685H136.599C133.309 152.684 130.631 150.03 130.631 146.766V146.766ZM144.985 152.684V147.345H145.882C147.366 147.345 148.573 148.543 148.573 150.014C148.574 151.487 147.367 152.684 145.882 152.684H144.985ZM163.219 141.471C165.251 142.48 166.516 144.507 166.516 146.766C166.516 150.03 163.839 152.684 160.549 152.684H151.533C151.924 151.873 152.162 150.974 152.162 150.015C152.162 149.056 151.923 148.157 151.532 147.346H156.801C157.958 147.346 159.046 147.792 159.864 148.604L162.403 146.088C160.907 144.604 158.919 143.786 156.802 143.786H146.229L145.463 141.757C146.482 141.905 147.515 142.007 148.574 142.007C152.334 142.007 155.867 141.04 158.948 139.353L163.219 141.471ZM166.516 120.65C166.516 130.464 158.467 138.447 148.573 138.447C146.982 138.447 145.448 138.221 143.978 137.833L141.282 130.702L137.921 131.954L139.425 135.933C134.172 132.825 130.632 127.146 130.632 120.65V108.156C130.632 106.729 131.486 105.445 132.806 104.883L138.929 102.279C141.79 103.963 145.041 104.976 148.444 105.186L163.152 106.098C165.037 106.214 166.515 107.775 166.515 109.648L166.516 120.65ZM170.104 120.65V113.532C172.083 113.532 173.693 115.128 173.693 117.091C173.692 119.054 172.083 120.65 170.104 120.65V120.65ZM170.104 109.972V109.648C170.104 105.898 167.149 102.776 163.376 102.543L148.669 101.63C143.505 101.31 138.763 98.7741 135.657 94.6663L132.785 96.803C133.621 97.9121 134.558 98.9227 135.577 99.8316L131.393 101.611C128.751 102.734 127.044 105.302 127.044 108.155V109.972C126.528 109.972 126.028 110.03 125.544 110.134L124.249 107.564C123.729 106.535 123.455 105.384 123.455 104.233C123.455 101.736 124.706 99.4183 126.801 98.0337L128.616 96.8322L128.785 96.1649C128.849 95.9102 128.956 95.6685 129.042 95.4191C131.615 94.6733 133.596 92.5613 134.088 89.909C134.836 89.5712 135.612 89.2987 136.429 89.1648L140.464 88.4975L140.872 88.0934C142.847 86.1354 145.473 85.0571 148.267 85.0571H148.882C151.675 85.0571 154.302 86.1354 156.278 88.095L156.685 88.4991L160.722 89.1664C164.449 89.7821 167.45 92.5297 168.368 96.1672L168.536 96.8345L170.352 98.036C172.442 99.4191 173.692 101.736 173.692 104.233C173.692 105.382 173.417 106.535 172.899 107.564L171.604 110.134C171.12 110.031 170.619 109.972 170.104 109.972L170.104 109.972Z" fill="#03C29E"/>
<path d="M171.897 49.4648H143.189C140.222 49.4648 137.806 51.86 137.806 54.8041V69.0416C137.806 71.9849 140.221 74.3809 143.189 74.3809H152.553L153.572 78.4262C154.03 80.235 155.663 81.4988 157.543 81.4988C159.423 81.4988 161.056 80.235 161.513 78.4233L162.533 74.3801H171.896C174.864 74.3801 177.279 71.9849 177.279 69.0408V54.8033C177.279 51.86 174.864 49.4648 171.896 49.4648H171.897ZM173.691 69.0408C173.691 70.0229 172.886 70.8203 171.897 70.8203H159.731L158.032 77.5603C157.918 78.0052 157.166 78.0036 157.054 77.5618L155.357 70.821H143.19C142.201 70.821 141.396 70.0236 141.396 69.0416V54.8033C141.396 53.8212 142.201 53.0238 143.19 53.0238H171.898C172.887 53.0238 173.692 53.8212 173.692 54.8033L173.691 69.0408Z" fill="#03C29E"/>
<path d="M144.985 56.5837H152.162V60.1432H144.985V56.5837Z" fill="#03C29E"/>
<path d="M155.75 56.5837H170.104V60.1432H155.75V56.5837Z" fill="#03C29E"/>
<path d="M144.985 63.7024H170.103V67.2618H144.985V63.7024Z" fill="#03C29E"/>
<path fill-rule="evenodd" clip-rule="evenodd" d="M97.7636 39.0829C125.385 38.2098 154.351 44.1059 171.708 62.8697C189.164 81.7392 189.617 107.732 183.065 131.296C176.64 154.398 163.722 179.924 137.424 186.156C113.222 191.891 96.5711 166.889 74.1386 157.107C52.5334 147.686 21.358 150.793 11.8812 131.412C1.46437 110.108 13.5171 85.3262 30.2463 67.3413C46.7942 49.5513 71.5184 39.9125 97.7636 39.0829Z" fill="#03C29E" fill-opacity="0.1"/>
<path fill-rule="evenodd" clip-rule="evenodd" d="M126.784 39.0829C154.405 38.2098 183.371 44.1059 200.729 62.8697C218.184 81.7392 218.637 107.732 212.085 131.296C205.66 154.398 192.742 179.924 166.444 186.156C142.242 191.891 125.591 166.889 103.159 157.107C81.5534 147.686 50.378 150.793 40.9013 131.412C30.4844 110.107 42.5371 85.3262 59.2663 67.3413C75.8143 49.5513 100.538 39.9125 126.784 39.0829Z" fill="#03C29E" fill-opacity="0.1"/>
</svg>
