<svg width="225" height="225" viewBox="0 0 225 225" fill="none" xmlns="http://www.w3.org/2000/svg">
<path d="M125.605 111.68C128.698 111.68 131.487 109.883 132.712 107.103C133.118 106.18 132.684 105.109 131.739 104.712C130.793 104.311 129.7 104.74 129.294 105.664C128.658 107.108 127.209 108.042 125.605 108.042C124 108.042 122.552 107.108 121.916 105.664C121.509 104.74 120.416 104.311 119.472 104.712C118.528 105.109 118.092 106.179 118.498 107.103C119.723 109.883 122.511 111.68 125.605 111.68Z" fill="#FEBE91"/>
<path d="M58.3497 159.036C57.322 159.036 56.4889 159.85 56.4889 160.855V161.59C56.4889 162.595 57.322 163.41 58.3497 163.41C59.3774 163.41 60.2105 162.595 60.2105 161.59V160.855C60.2105 159.85 59.3774 159.036 58.3497 159.036Z" fill="#FEBE91"/>
<path d="M66.5018 146.262H60.0165C58.0713 146.262 56.4883 147.809 56.4883 149.712V155.082C56.4883 156.088 57.3214 156.902 58.3491 156.902C59.3768 156.902 60.2099 156.088 60.2099 155.082V149.901H66.5032C67.5309 149.901 68.364 149.087 68.364 148.081C68.3627 147.076 67.5295 146.262 66.5018 146.262Z" fill="#FEBE91"/>
<path d="M143.59 131.221C142.798 131.128 141.973 131.084 141.066 131.084H137.979V126.883C145.117 123.23 150.163 116.617 151.801 109.031H155.151C160.317 109.031 164.52 104.921 164.52 99.869C164.52 94.817 160.317 90.7069 155.151 90.7069H152.382L152.381 81.1043C152.381 81.0142 152.374 80.9253 152.361 80.8391C152.215 68.3153 141.752 58.1711 128.912 58.1711H122.277C109.347 58.1711 98.8268 68.4589 98.8268 81.1045V90.708H96.0396C90.8737 90.708 86.6708 94.8182 86.6708 99.8701C86.6708 104.922 90.8737 109.032 96.0396 109.032H99.4083C101.046 116.615 106.088 123.226 113.223 126.88V131.085H110.121C109.284 131.085 108.523 131.126 107.805 131.204C107.736 131.211 107.664 131.214 107.596 131.222C107.592 131.222 107.59 131.224 107.587 131.224C102.327 131.781 97.4477 134.139 93.7249 137.864H53.2477C50.3009 137.864 47.9028 140.216 47.9028 143.109V174.062C47.9028 176.944 50.3008 179.289 53.2477 179.289H68.3972L67.9625 183.726H67.7211C64.5199 183.726 61.773 185.96 61.189 189.039C61.0125 189.97 61.2668 190.922 61.8871 191.65C62.5048 192.376 63.4144 192.793 64.3837 192.793H94.3597C95.3278 192.793 96.2387 192.376 96.8576 191.648C97.4766 190.92 97.7309 189.967 97.5545 189.036C96.9692 185.959 94.2223 183.725 91.0223 183.725H90.0906L89.6559 179.288H104.805C107.752 179.288 110.15 176.942 110.15 174.061V172.578H162.154C163.182 172.578 164.015 171.764 164.015 170.759V153.526C164.014 142.042 155.225 132.453 143.591 131.221L143.59 131.221ZM93.7347 189.157H65.0094C65.4467 188.092 66.5094 187.365 67.7214 187.365H91.0214C92.2334 187.365 93.2974 188.092 93.7347 189.157ZM117.312 136.321C117.066 135.451 116.945 134.617 116.945 133.773V128.462C116.962 128.468 116.98 128.471 116.998 128.477C117.032 128.489 117.067 128.496 117.101 128.506C117.887 128.765 118.689 128.977 119.499 129.161C119.777 129.225 120.057 129.275 120.336 129.33C120.922 129.444 121.512 129.538 122.105 129.613C122.409 129.652 122.713 129.694 123.021 129.722C123.79 129.793 124.561 129.836 125.334 129.844C125.423 129.845 125.509 129.858 125.598 129.858C125.663 129.858 125.729 129.848 125.794 129.848C126.61 129.841 127.423 129.793 128.236 129.717C128.478 129.693 128.72 129.66 128.961 129.631C129.661 129.546 130.353 129.434 131.042 129.296C131.232 129.258 131.421 129.223 131.611 129.182C132.505 128.982 133.392 128.754 134.259 128.463V132.87C134.259 132.883 134.251 132.893 134.251 132.906V133.775C134.251 134.618 134.132 135.453 133.901 136.268C132.755 139.855 129.415 142.265 125.59 142.267C121.774 142.264 118.441 139.853 117.312 136.321ZM155.152 94.3456C158.266 94.3456 160.801 96.8227 160.801 99.8696C160.801 102.915 158.268 105.394 155.152 105.394H152.365V104.15C152.367 103.987 152.383 103.826 152.383 103.663V94.3456L155.152 94.3456ZM102.55 81.1036C102.55 70.4643 111.4 61.8084 122.279 61.8084H128.914C139.793 61.8084 148.644 70.4643 148.644 81.1036C148.644 81.1886 148.651 81.2736 148.662 81.3561V92.4394C148.661 92.4699 148.644 92.4965 148.644 92.527V95.0193C148.291 95.0117 147.919 94.9812 147.488 94.9026H147.487L147.101 94.8112C146.817 94.7427 146.541 94.6602 146.258 94.5549C146.123 94.5054 145.989 94.4571 145.863 94.4C145.596 94.2808 145.344 94.1412 145.093 93.9902L144.776 93.8112C144.47 93.6031 144.186 93.3696 143.909 93.1095C143.804 93.0117 143.711 92.9039 143.517 92.6907C143.387 92.546 143.259 92.4001 143.137 92.2389C143.006 92.0689 142.884 91.895 142.776 91.7225C142.683 91.574 142.604 91.4179 142.443 91.1121C142.364 90.9649 142.283 90.8202 142.22 90.6641C141.938 89.9713 141.253 89.517 140.491 89.517H138.297C137.269 89.517 136.436 90.3317 136.436 91.3367V92.187H126.067C119.454 92.187 113.962 87.3433 113.291 80.9181C113.195 79.9905 112.319 79.2837 111.364 79.2837C110.336 79.2837 109.503 80.0984 109.503 81.1034V88.126C109.503 88.5993 109.454 89.0625 109.36 89.5092C109.329 89.6615 109.264 89.7998 109.223 89.947C109.141 90.2351 109.068 90.5269 108.951 90.7985C108.88 90.9647 108.775 91.1132 108.691 91.2731C108.566 91.5078 108.454 91.7489 108.305 91.9672C108.196 92.1258 108.057 92.2616 107.935 92.4114C107.776 92.6055 107.629 92.8098 107.449 92.9875C107.306 93.1271 107.139 93.24 106.986 93.3682C106.796 93.5255 106.617 93.6943 106.412 93.8314C106.242 93.9443 106.051 94.0268 105.871 94.1258C105.657 94.2438 105.45 94.3745 105.222 94.4709C105.029 94.5522 104.819 94.5991 104.616 94.6626C104.381 94.7374 104.152 94.8275 103.906 94.8783C103.695 94.9227 103.47 94.9278 103.252 94.9519C103.019 94.9785 102.789 95.0179 102.549 95.0217L102.55 81.1036ZM98.8285 105.392H96.0412C92.927 105.392 90.3927 102.915 90.3927 99.8683C90.3927 96.8227 92.9256 94.3443 96.0412 94.3443L98.8285 94.3456V105.392ZM102.55 103.663V98.6691C102.88 98.6653 103.194 98.6057 103.515 98.574C103.831 98.5435 104.153 98.5372 104.46 98.4813C104.79 98.4204 105.097 98.3087 105.415 98.2187C105.712 98.1349 106.019 98.0753 106.304 97.9674C106.609 97.8532 106.888 97.692 107.179 97.5524C107.452 97.4205 107.739 97.3101 107.999 97.1565C108.274 96.9941 108.518 96.791 108.776 96.6058C109.021 96.4294 109.282 96.2733 109.512 96.0791C109.757 95.8697 109.966 95.6248 110.192 95.3951C110.398 95.1845 110.622 94.9929 110.811 94.767C111.027 94.5068 111.199 94.215 111.389 93.9358C111.545 93.7061 111.724 93.4929 111.863 93.2518C112.051 92.9219 112.189 92.5627 112.341 92.2125C112.435 91.9942 112.557 91.7899 112.636 91.5653C112.844 90.9777 113.001 90.3661 113.1 89.7367C116.141 93.4726 120.833 95.8265 126.068 95.8265H138.298C138.522 95.8265 138.736 95.7872 138.935 95.7161C139.001 95.692 139.053 95.6464 139.115 95.6159C139.241 95.555 139.37 95.4991 139.477 95.4129C139.541 95.3621 139.584 95.291 139.639 95.2327C139.725 95.1438 139.817 95.0613 139.883 94.9573C139.931 94.8812 139.951 94.791 139.987 94.7086C140.031 94.6058 140.091 94.5106 140.116 94.3989C140.48 94.8837 140.896 95.3202 141.333 95.7327C141.335 95.7352 141.338 95.739 141.342 95.7415C141.345 95.7441 141.347 95.7453 141.35 95.7479C142.836 97.1412 144.706 98.093 146.767 98.4724C146.783 98.4749 146.797 98.48 146.813 98.4825C146.823 98.4838 146.832 98.4838 146.843 98.4851C147.399 98.5841 147.965 98.6463 148.545 98.6589C148.578 98.6602 148.617 98.6691 148.649 98.6691V104.151C148.458 112.689 143.29 120.488 135.355 124.116C135.35 124.119 135.343 124.119 135.338 124.121C134.576 124.468 133.798 124.771 133.006 125.032C132.818 125.095 132.621 125.131 132.43 125.189C127.182 126.767 121.429 126.482 116.358 124.31C116.198 124.242 116.033 124.194 115.875 124.121C107.779 120.422 102.55 112.393 102.55 103.663ZM113.255 134.721C113.274 134.943 113.314 135.169 113.344 135.392C113.354 135.472 113.363 135.552 113.375 135.632C113.46 136.197 113.572 136.767 113.738 137.349C115.167 141.826 118.991 145.018 123.578 145.745C124.233 145.849 124.904 145.902 125.585 145.902H125.593C131.056 145.902 135.826 142.466 137.477 137.293C137.513 137.166 137.526 137.04 137.557 136.913C137.65 136.541 137.733 136.169 137.794 135.799C137.831 135.576 137.855 135.356 137.88 135.135C137.896 134.998 137.923 134.859 137.933 134.722H141.066C141.21 134.722 141.341 134.73 141.48 134.733C141.41 135.885 141.216 137.04 140.916 138.13L140.832 138.377C138.734 144.948 132.606 149.364 125.585 149.364C118.587 149.364 112.474 144.948 110.366 138.348L110.318 138.212C109.986 137.064 109.782 135.896 109.711 134.732C109.851 134.73 109.98 134.722 110.124 134.722L113.255 134.721ZM106.059 135.16C106.132 136.154 106.283 137.155 106.517 138.163C105.977 137.982 105.408 137.862 104.805 137.862H99.4851C101.481 136.564 103.709 135.655 106.059 135.16ZM86.3562 183.724H71.6997L73.6305 164.006H84.4253L86.3562 183.724ZM106.432 174.06C106.432 174.936 105.704 175.649 104.807 175.649H89.3098L87.9667 162.012C87.8746 161.078 87.0727 160.368 86.1151 160.368H71.9412C70.9836 160.368 70.1817 161.08 70.0896 162.012L68.7465 175.649H53.2493C52.3539 175.649 51.6247 174.937 51.6247 174.06V143.107C51.6247 142.221 52.3526 141.501 53.2493 141.501L104.809 141.502C105.704 141.502 106.433 142.223 106.433 143.109L106.432 174.06ZM160.293 168.939H110.149V145.648C113.793 150.203 119.401 153.002 125.583 153.002C134.24 153.002 141.795 147.56 144.37 139.496L144.473 139.182C144.846 137.838 145.035 136.491 145.131 135.149C153.899 136.981 160.291 144.56 160.291 153.524L160.293 168.939Z" fill="#FEBE91"/>
<path d="M126.173 70.2052H128.912C132.682 70.2052 136.17 72.0541 138.242 75.1518C138.6 75.6847 139.194 75.9741 139.8 75.9741C140.151 75.9741 140.504 75.8776 140.818 75.6771C141.677 75.1264 141.918 73.9995 141.355 73.1582C138.592 69.0302 133.939 66.5658 128.911 66.5658L126.173 66.5671C125.145 66.5671 124.312 67.3818 124.312 68.3868C124.312 69.3919 125.145 70.2052 126.173 70.2052Z" fill="#FEBE91"/>
<path d="M140.031 80.37C140.048 80.6124 140.057 80.8573 140.057 81.1047C140.057 82.1097 140.89 82.9244 141.918 82.9244C142.946 82.9244 143.779 82.1097 143.779 81.1047C143.779 80.7773 143.769 80.4525 143.746 80.1301C143.678 79.1277 142.795 78.3511 141.768 78.4348C140.74 78.5008 139.964 79.3675 140.031 80.37Z" fill="#FEBE91"/>
<path d="M117.675 102.558C117.675 103.844 116.61 104.885 115.295 104.885C113.981 104.885 112.916 103.844 112.916 102.558C112.916 101.273 113.981 100.231 115.295 100.231C116.61 100.231 117.675 101.273 117.675 102.558Z" fill="#FEBE91"/>
<path d="M138.294 102.558C138.294 103.844 137.229 104.885 135.916 104.885C134.601 104.885 133.536 103.844 133.536 102.558C133.536 101.273 134.601 100.231 135.916 100.231C137.229 100.231 138.294 101.273 138.294 102.558Z" fill="#FEBE91"/>
<path fill-rule="evenodd" clip-rule="evenodd" d="M80.8887 27.0478C106.848 22.6552 133.851 32.3134 151.865 51.515C171.735 72.6953 188.797 103.382 177.664 130.205C167.223 155.363 130.906 149.199 106.393 161.076C81.7286 173.026 62.8757 208.589 37.5627 198.084C12.2164 187.564 15.6211 150.588 15.0145 123.152C14.5846 103.708 23.7647 87.3719 34.7604 71.3303C47.4389 52.8336 58.7782 30.7892 80.8887 27.0478Z" fill="#FEBE91" fill-opacity="0.1"/>
<path fill-rule="evenodd" clip-rule="evenodd" d="M118.867 46.0478C142.454 41.6552 166.989 51.3134 183.356 70.515C201.41 91.6953 216.913 122.382 206.798 149.205C197.311 174.363 164.313 168.199 142.04 180.076C119.63 192.026 102.5 227.589 79.5007 217.084C56.4708 206.564 59.5643 169.588 59.0132 142.152C58.6226 122.708 66.9637 106.372 76.9544 90.3303C88.4742 71.8336 98.7772 49.7892 118.867 46.0478Z" fill="#FEBE91" fill-opacity="0.1"/>
</svg>
