<svg width="225" height="225" viewBox="0 0 225 225" fill="none" xmlns="http://www.w3.org/2000/svg">
<path fill-rule="evenodd" clip-rule="evenodd" d="M76.0807 34.0316C97.5843 34.4711 117.264 43.7141 132.691 60.5887C151.645 81.3209 174.991 106.334 168.57 135.198C162.197 163.845 130.494 170.913 105.881 181.11C85.3819 189.603 62.8296 198.981 43.8091 186.888C25.6816 175.363 24.0367 148.847 19.2534 126.032C14.397 102.868 4.76424 77.7594 16.8331 58.2206C29.4534 37.7889 53.9828 33.58 76.0807 34.0316Z" fill="#665BFF" fill-opacity="0.1"/>
<path fill-rule="evenodd" clip-rule="evenodd" d="M119.081 34.0316C140.584 34.4711 160.264 43.7141 175.691 60.5887C194.645 81.3209 217.991 106.334 211.57 135.198C205.197 163.845 173.494 170.913 148.881 181.11C128.382 189.603 105.83 198.981 86.8091 186.888C68.6816 175.363 67.0367 148.847 62.2534 126.032C57.397 102.868 47.7642 77.7594 59.8331 58.2206C72.4534 37.7889 96.9828 33.58 119.081 34.0316Z" fill="#665BFF" fill-opacity="0.1"/>
<path d="M134.582 125.993C135.22 126.413 136.068 126.203 136.917 125.782L148.168 117.149C148.592 116.729 149.017 116.097 149.017 115.465C149.017 114.832 148.805 114.201 148.168 113.78L136.917 105.147C136.28 104.726 135.432 104.515 134.582 104.936C133.945 105.357 133.309 105.989 133.309 106.831V123.886C133.308 124.94 133.945 125.571 134.582 125.993V125.993ZM137.554 111.253L143.286 115.464L137.554 119.675V111.253Z" fill="#665BFF"/>
<path d="M158.992 98.8323H120.994C119.721 98.8323 118.872 99.6746 118.872 100.938V130.205C118.872 131.468 119.721 132.311 120.994 132.311H158.992C160.265 132.311 161.115 131.468 161.115 130.205V100.94C161.115 99.6762 160.266 98.8338 158.992 98.8338V98.8323ZM156.869 128.1H123.117V103.043H156.869V128.1Z" fill="#665BFF"/>
<path d="M89.5794 101.78C82.3621 101.78 76.6304 107.466 76.6304 114.624C76.6304 121.783 82.3621 127.469 89.5794 127.469C96.7966 127.469 102.528 121.783 102.528 114.624C102.528 107.466 96.7966 101.78 89.5794 101.78ZM89.5794 123.258C84.6968 123.258 80.8757 119.468 80.8757 114.624C80.8757 109.781 84.9089 105.992 89.5794 105.992C94.2498 105.992 98.283 109.782 98.283 114.625C98.282 119.468 94.4619 123.258 89.5794 123.258Z" fill="#665BFF"/>
<path d="M178.734 65.1428H47.1227C45.8493 65.1428 45 65.9852 45 67.2483V167.263C45 168.526 45.8492 169.368 47.1227 169.368H101.042V179.685H90.0038C86.3947 179.685 83.4228 182.633 83.4228 186.213C83.4228 189.793 86.3947 192.741 90.0038 192.741H135.855C139.464 192.741 142.436 189.793 142.436 186.213C142.436 182.633 139.464 179.685 135.855 179.685H124.817V169.368H178.736C180.01 169.368 180.859 168.526 180.859 167.263V67.2483C180.859 66.1956 180.01 65.1428 178.736 65.1428H178.734ZM138.189 186.424C138.189 187.687 137.128 188.74 135.855 188.74H90.0036C88.7302 188.74 87.6689 187.687 87.6689 186.424C87.6689 185.161 88.7302 184.108 90.0036 184.108H135.855C137.128 184.107 138.189 185.16 138.189 186.424ZM120.571 179.896H105.287V169.58H120.571V179.896ZM176.612 165.368H49.2462V69.3535H176.612V165.368Z" fill="#665BFF"/>
<path d="M59.0084 157.786H166.845C168.118 157.786 168.968 156.944 168.968 155.681V79.0381C168.968 77.775 168.118 76.9326 166.845 76.9326L59.0084 76.9316C57.735 76.9316 56.8857 77.774 56.8857 79.0371V155.469C56.8857 156.733 57.735 157.786 59.0084 157.786V157.786ZM102.1 153.576V143.469C102.1 142.206 101.251 141.363 99.9773 141.363C98.7039 141.363 97.8547 142.206 97.8547 143.469V153.576H81.5097V143.469C81.5097 142.206 80.6604 141.363 79.387 141.363C78.1136 141.363 77.2644 142.206 77.2644 143.469V153.576H67.7114V141.995C67.7114 137.362 71.5324 133.573 76.2021 133.573H79.8112C84.9057 139.468 94.0337 139.468 99.3411 133.573H102.95C107.621 133.573 111.441 137.363 111.441 141.995V153.576H102.1ZM115.898 153.576V141.995C115.898 135.046 110.166 129.361 103.161 129.361H98.4908C97.8536 129.361 97.2175 129.782 96.7923 130.203C93.3963 134.836 86.178 134.836 82.7821 130.203C82.3579 129.571 81.7207 129.361 81.0835 129.361H76.4131C69.408 129.361 63.6763 135.046 63.6763 141.995V153.576H61.1304V93.7774H164.721V153.576H115.898ZM164.721 81.1438V89.5657H61.1305V81.1438H164.721Z" fill="#665BFF"/>
<path d="M69.4116 86.8287C70.2609 85.9864 70.2609 84.7232 69.4116 83.8808C68.5624 83.0384 67.2889 83.0384 66.4397 83.8808C65.5904 84.7232 65.5904 85.9863 66.4397 86.8287C67.2879 87.6711 68.7744 87.6711 69.4116 86.8287Z" fill="#665BFF"/>
<path d="M78.5405 86.8287C79.3897 85.9864 79.3897 84.7232 78.5405 83.8808C77.6913 83.0384 76.4179 83.0384 75.5686 83.8808C74.7193 84.7232 74.7193 85.9863 75.5686 86.8287C76.4178 87.6712 77.6912 87.6711 78.5405 86.8287Z" fill="#665BFF"/>
<path d="M87.4546 86.8287C88.3038 85.9864 88.3038 84.7232 87.4546 83.8808C86.6053 83.0384 85.3319 83.0384 84.4826 83.8808C83.6334 84.7232 83.6334 85.9863 84.4826 86.8287C85.3309 87.6711 86.6053 87.6711 87.4546 86.8287Z" fill="#665BFF"/>
</svg>
