<svg width="225" height="225" viewBox="0 0 225 225" fill="none" xmlns="http://www.w3.org/2000/svg">
<path d="M207.45 0H17.2006C7.72284 0 0 8.4172 0 18.7493V156.124C0 165.69 7.01998 174.109 15.7965 174.491H84.9455V195.154H62.8323C55.1095 195.154 49.1431 202.042 49.1431 210.077C49.1431 218.496 55.4615 225 62.8323 225H161.817C169.54 225 175.506 218.112 175.506 210.077C175.506 201.658 169.188 195.154 161.817 195.154H140.055V174.491H207.801C217.279 174.491 225 166.072 225 155.742L224.998 18.7506C224.648 8.41855 216.925 0.00135221 207.447 0.00135221L207.45 0ZM17.2006 7.65278H207.802C213.417 7.65278 217.981 12.6276 217.981 18.7493V141.58H81.4369L80.7356 112.116C80.7356 109.438 81.437 107.141 83.1919 105.228C84.9469 103.315 87.0525 102.55 89.5103 102.55C94.4245 102.55 99.6892 100.637 103.55 97.5755L133.386 72.7028C134.791 71.5541 135.141 69.2587 134.088 67.3455L132.333 64.6678L164.626 41.3256C166.381 40.177 166.732 37.8816 165.68 35.9684C165.329 35.2038 164.626 34.8198 163.925 34.4375H200.43C202.536 34.4375 203.94 32.9066 203.94 30.6112C203.94 28.3157 202.536 26.7848 200.43 26.7848H105.657C103.551 26.7848 102.147 28.3157 102.147 30.6112C102.147 32.9066 103.551 34.4375 105.657 34.4375H161.469C161.118 34.4375 161.118 34.4375 160.767 34.8198L128.123 58.5439L126.368 55.8662C125.314 54.3353 123.208 53.5707 121.453 54.7176L84.2453 80.3552H58.9727C57.5684 80.3552 56.1641 81.5038 55.8135 83.0329L51.25 96.8092H49.8457L45.2823 83.0329C44.9316 81.5021 43.5273 80.3552 42.123 80.3552C30.1888 80.3552 20.711 90.6873 20.711 103.697V141.58H7.02188V18.7496C7.02188 12.6279 11.5853 7.65312 17.2025 7.65312L17.2006 7.65278ZM39.3138 125.509C37.2082 125.509 35.8038 127.04 35.8038 129.335V141.58H27.7302V103.698C27.7302 96.0448 32.9953 89.5389 39.6644 88.3921L44.2279 102.168C44.5786 103.699 45.9829 104.846 47.3871 104.846H54.0563C55.4606 104.846 56.8649 103.697 57.2156 102.168L61.779 88.3921H85.6471C86.3484 88.3921 87.0514 88.0098 87.4021 87.6275L122.854 62.7529C123.204 63.1352 126.714 68.8746 126.364 68.4926L98.9836 91.0699C96.175 93.3653 92.6653 94.5139 89.1551 94.5139C84.942 94.5139 81.0814 96.4271 77.9224 99.4887C74.7632 102.933 73.359 107.142 73.359 112.116L74.0603 141.58H42.1186V129.335C42.8231 127.04 41.0682 125.509 39.3132 125.509L39.3138 125.509ZM168.486 210.078C168.486 214.286 165.326 217.348 161.816 217.348H62.8319C58.9713 217.348 56.1627 213.904 56.1627 210.078C56.1627 206.251 59.322 202.807 62.8319 202.807H161.816C165.677 202.807 168.486 205.869 168.486 210.078ZM133.034 195.155H91.6151V174.492H132.684V195.155H133.034ZM207.449 166.838H16.1448C11.2322 166.455 7.01915 161.48 7.01915 155.741V149.235H217.627V155.741C217.628 161.863 213.065 166.838 207.448 166.838H207.449Z" fill="#03C29E"/>
<path d="M200.431 51.6562H155.851C153.746 51.6562 152.341 53.1871 152.341 55.4826C152.341 57.778 153.746 59.309 155.851 59.309H200.431C202.537 59.309 203.941 57.7781 203.941 55.4826C203.941 53.1872 202.538 51.6562 200.431 51.6562Z" fill="#03C29E"/>
<path d="M200.429 76.5293H138.652C136.546 76.5293 135.142 78.0602 135.142 80.3556C135.142 82.6511 136.546 84.182 138.652 84.182H200.781C202.886 84.182 204.291 82.6511 204.291 80.3556C203.938 78.0602 202.536 76.5293 200.428 76.5293H200.429Z" fill="#03C29E"/>
<path d="M200.43 101.022H111.271C109.165 101.022 107.761 102.553 107.761 104.849C107.761 107.144 109.165 108.675 111.271 108.675H200.43C202.536 108.675 203.94 107.144 203.94 104.849C203.94 102.552 202.537 101.022 200.43 101.022Z" fill="#03C29E"/>
<path d="M50.8996 73.4673C61.0786 73.4673 69.1522 64.6658 69.1522 53.5693C69.1522 42.4728 61.0786 33.6714 50.8996 33.6714C40.7206 33.6714 32.647 42.4728 32.647 53.5693C32.647 64.2838 40.7206 73.4673 50.8996 73.4673ZM50.8996 40.9417C57.218 40.9417 62.1322 46.299 62.1322 53.1869C62.1322 60.0748 57.218 65.4321 50.8996 65.4321C44.5812 65.4321 39.667 60.0748 39.667 53.1869C39.667 46.6828 44.5812 40.9417 50.8996 40.9417V40.9417Z" fill="#03C29E"/>
</svg>
