<svg width="16" height="16" viewBox="0 0 16 16" fill="none" xmlns="http://www.w3.org/2000/svg">
<g clip-path="url(#clip0_232_21)">
<path d="M4.63656 14V3.824H0.700562V2.8H9.75656V3.824H5.82056V14H4.63656ZM12.3718 14.096C11.7425 14.096 11.1505 13.9573 10.5958 13.68C10.0518 13.4027 9.61448 13.008 9.28381 12.496L9.97181 11.696C10.2811 12.144 10.6385 12.4853 11.0438 12.72C11.4491 12.9547 11.8971 13.072 12.3878 13.072C13.7745 13.072 14.4678 12.2507 14.4678 10.608V3.824H10.3718V2.8H15.6358V10.56C15.6358 11.744 15.3585 12.6293 14.8038 13.216C14.2598 13.8027 13.4491 14.096 12.3718 14.096Z" fill="#03C29E"/>
</g>
<defs>
<clipPath id="clip0_232_21">
<rect width="16" height="16" fill="white"/>
</clipPath>
</defs>
</svg>
